<svg width="405" height="404" viewBox="0 0 405 404" fill="none" xmlns="http://www.w3.org/2000/svg">
<g clip-path="url(#clip0_1806_7719)">
<path d="M404.5 308.979H0.5V309.181H404.5V308.979Z" fill="#EBEBEB"/>
<path d="M364.019 321.98H337.258V322.182H364.019V321.98Z" fill="#EBEBEB"/>
<path d="M268.126 324.178H261.104V324.38H268.126V324.178Z" fill="#EBEBEB"/>
<path d="M336.45 314.481H320.945V314.683H336.45V314.481Z" fill="#EBEBEB"/>
<path d="M77.7852 315.839H42.8877V316.041H77.7852V315.839Z" fill="#EBEBEB"/>
<path d="M90.099 315.839H84.9844V316.041H90.099V315.839Z" fill="#EBEBEB"/>
<path d="M182.421 319.249H106.728V319.451H182.421V319.249Z" fill="#EBEBEB"/>
<path d="M191.996 272.942H35.9791C34.7569 272.94 33.5855 272.453 32.722 271.588C31.8585 270.723 31.3735 269.551 31.3735 268.329V49.0132C31.3842 47.798 31.8738 46.6361 32.7362 45.7798C33.5985 44.9235 34.7639 44.442 35.9791 44.4399H191.996C193.219 44.4399 194.393 44.926 195.258 45.7913C196.123 46.6565 196.61 47.83 196.61 49.0536V268.329C196.61 269.552 196.123 270.726 195.258 271.591C194.393 272.456 193.219 272.942 191.996 272.942ZM35.9791 44.6015C34.8105 44.6037 33.6904 45.0694 32.8648 45.8965C32.0392 46.7237 31.5755 47.8446 31.5755 49.0132V268.329C31.5755 269.497 32.0392 270.618 32.8648 271.445C33.6904 272.272 34.8105 272.738 35.9791 272.74H191.996C193.165 272.738 194.286 272.273 195.113 271.446C195.94 270.619 196.405 269.498 196.408 268.329V49.0132C196.405 47.8438 195.94 46.7229 195.113 45.8961C194.286 45.0692 193.165 44.6037 191.996 44.6015H35.9791Z" fill="#EBEBEB"/>
<path d="M366.775 272.942H210.75C209.527 272.94 208.355 272.453 207.49 271.589C206.625 270.724 206.138 269.552 206.136 268.329V49.0132C206.149 47.7973 206.64 46.6353 207.504 45.7793C208.368 44.9232 209.534 44.442 210.75 44.4399H366.775C367.989 44.4441 369.152 44.9266 370.012 45.7826C370.873 46.6387 371.362 47.7994 371.372 49.0132V268.329C371.372 269.549 370.888 270.721 370.027 271.585C369.165 272.45 367.996 272.938 366.775 272.942ZM210.75 44.6015C209.581 44.6037 208.46 45.0692 207.633 45.8961C206.806 46.7229 206.34 47.8438 206.338 49.0132V268.329C206.34 269.498 206.806 270.619 207.633 271.446C208.46 272.273 209.581 272.738 210.75 272.74H366.775C367.944 272.738 369.065 272.273 369.892 271.446C370.719 270.619 371.184 269.498 371.186 268.329V49.0132C371.184 47.8438 370.719 46.7229 369.892 45.8961C369.065 45.0692 367.944 44.6037 366.775 44.6015H210.75Z" fill="#EBEBEB"/>
<path d="M360.399 94.6812H164.637V283.381H360.399V94.6812Z" fill="#E0E0E0"/>
<path d="M360.399 98.1074H167.78V280.085H360.399V98.1074Z" fill="#F5F5F5"/>
<path d="M169.202 236.017V181.275H174.883V174.043L187.681 168.064V160.663H189.814V181.275H191.948V236.017H194.792V207.575H201.191V192.651H203.324V236.017H208.293V219.663H211.849V215.397H219.67V200.473H223.936V190.518H228.914V175.587H231.047V190.518H236.024V200.473H240.282V215.397H248.104V219.663H251.659V236.017H255.925V215.397H263.746V169.906H265.88V164.929H282.936V169.906H286.492V202.606H300.712V206.153H305.682V208.286H300.712V221.085H315.636V178.431H318.48V169.906H325.591V137.207H327.724V169.906H332.701V178.431H360.399V280.085H167.78V236.017H169.202Z" fill="#E6E6E6"/>
<path d="M345.597 180.661H343.585V182.673H345.597V180.661Z" fill="#F0F0F0"/>
<path d="M345.597 184.038H343.585V186.05H345.597V184.038Z" fill="#F0F0F0"/>
<path d="M345.597 197.548H343.585V199.56H345.597V197.548Z" fill="#F0F0F0"/>
<path d="M345.597 200.917H343.585V202.929H345.597V200.917Z" fill="#F0F0F0"/>
<path d="M345.597 204.294H343.585V206.306H345.597V204.294Z" fill="#F0F0F0"/>
<path d="M345.597 214.427H343.585V216.439H345.597V214.427Z" fill="#F0F0F0"/>
<path d="M345.597 217.804H343.585V219.816H345.597V217.804Z" fill="#F0F0F0"/>
<path d="M342.397 194.17H340.385V196.182H342.397V194.17Z" fill="#F0F0F0"/>
<path d="M342.397 197.548H340.385V199.56H342.397V197.548Z" fill="#F0F0F0"/>
<path d="M342.397 200.917H340.385V202.929H342.397V200.917Z" fill="#F0F0F0"/>
<path d="M342.397 204.294H340.385V206.306H342.397V204.294Z" fill="#F0F0F0"/>
<path d="M342.397 207.672H340.385V209.684H342.397V207.672Z" fill="#F0F0F0"/>
<path d="M342.397 214.427H340.385V216.439H342.397V214.427Z" fill="#F0F0F0"/>
<path d="M342.397 217.804H340.385V219.816H342.397V217.804Z" fill="#F0F0F0"/>
<path d="M339.197 180.661H337.186V182.673H339.197V180.661Z" fill="#F0F0F0"/>
<path d="M339.197 184.038H337.186V186.05H339.197V184.038Z" fill="#F0F0F0"/>
<path d="M339.197 187.416H337.186V189.427H339.197V187.416Z" fill="#F0F0F0"/>
<path d="M339.197 190.793H337.186V192.805H339.197V190.793Z" fill="#F0F0F0"/>
<path d="M339.197 194.17H337.186V196.182H339.197V194.17Z" fill="#F0F0F0"/>
<path d="M339.197 197.548H337.186V199.56H339.197V197.548Z" fill="#F0F0F0"/>
<path d="M339.197 200.917H337.186V202.929H339.197V200.917Z" fill="#F0F0F0"/>
<path d="M339.197 204.294H337.186V206.306H339.197V204.294Z" fill="#F0F0F0"/>
<path d="M339.197 207.672H337.186V209.684H339.197V207.672Z" fill="#F0F0F0"/>
<path d="M339.197 211.05H337.186V213.062H339.197V211.05Z" fill="#F0F0F0"/>
<path d="M339.197 217.804H337.186V219.816H339.197V217.804Z" fill="#F0F0F0"/>
<path d="M335.998 180.661H333.986V182.673H335.998V180.661Z" fill="#F0F0F0"/>
<path d="M335.998 184.038H333.986V186.05H335.998V184.038Z" fill="#F0F0F0"/>
<path d="M335.998 187.416H333.986V189.427H335.998V187.416Z" fill="#F0F0F0"/>
<path d="M335.998 190.793H333.986V192.805H335.998V190.793Z" fill="#F0F0F0"/>
<path d="M335.998 194.17H333.986V196.182H335.998V194.17Z" fill="#F0F0F0"/>
<path d="M335.998 197.548H333.986V199.56H335.998V197.548Z" fill="#F0F0F0"/>
<path d="M335.998 200.917H333.986V202.929H335.998V200.917Z" fill="#F0F0F0"/>
<path d="M335.998 231.314H333.986V233.326H335.998V231.314Z" fill="#F0F0F0"/>
<path d="M332.798 180.661H330.786V182.673H332.798V180.661Z" fill="#F0F0F0"/>
<path d="M332.798 184.038H330.786V186.05H332.798V184.038Z" fill="#F0F0F0"/>
<path d="M332.798 187.416H330.786V189.427H332.798V187.416Z" fill="#F0F0F0"/>
<path d="M332.798 190.793H330.786V192.805H332.798V190.793Z" fill="#F0F0F0"/>
<path d="M332.798 194.17H330.786V196.182H332.798V194.17Z" fill="#F0F0F0"/>
<path d="M332.798 197.548H330.786V199.56H332.798V197.548Z" fill="#F0F0F0"/>
<path d="M332.798 200.917H330.786V202.929H332.798V200.917Z" fill="#F0F0F0"/>
<path d="M332.798 204.294H330.786V206.306H332.798V204.294Z" fill="#F0F0F0"/>
<path d="M332.798 224.559H330.786V226.571H332.798V224.559Z" fill="#F0F0F0"/>
<path d="M332.798 227.937H330.786V229.948H332.798V227.937Z" fill="#F0F0F0"/>
<path d="M332.798 231.314H330.786V233.326H332.798V231.314Z" fill="#F0F0F0"/>
<path d="M332.798 234.684H330.786V236.696H332.798V234.684Z" fill="#F0F0F0"/>
<path d="M332.798 248.193H330.786V250.205H332.798V248.193Z" fill="#F0F0F0"/>
<path d="M329.598 180.661H327.586V182.673H329.598V180.661Z" fill="#F0F0F0"/>
<path d="M329.598 184.038H327.586V186.05H329.598V184.038Z" fill="#F0F0F0"/>
<path d="M329.598 187.416H327.586V189.427H329.598V187.416Z" fill="#F0F0F0"/>
<path d="M329.598 190.793H327.586V192.805H329.598V190.793Z" fill="#F0F0F0"/>
<path d="M329.598 194.17H327.586V196.182H329.598V194.17Z" fill="#F0F0F0"/>
<path d="M329.598 197.548H327.586V199.56H329.598V197.548Z" fill="#F0F0F0"/>
<path d="M329.598 200.917H327.586V202.929H329.598V200.917Z" fill="#F0F0F0"/>
<path d="M329.598 204.294H327.586V206.306H329.598V204.294Z" fill="#F0F0F0"/>
<path d="M329.598 207.672H327.586V209.684H329.598V207.672Z" fill="#F0F0F0"/>
<path d="M329.598 211.05H327.586V213.062H329.598V211.05Z" fill="#F0F0F0"/>
<path d="M329.598 221.182H327.586V223.194H329.598V221.182Z" fill="#F0F0F0"/>
<path d="M329.598 224.559H327.586V226.571H329.598V224.559Z" fill="#F0F0F0"/>
<path d="M329.598 227.937H327.586V229.948H329.598V227.937Z" fill="#F0F0F0"/>
<path d="M329.598 231.314H327.586V233.326H329.598V231.314Z" fill="#F0F0F0"/>
<path d="M329.598 234.684H327.586V236.696H329.598V234.684Z" fill="#F0F0F0"/>
<path d="M329.598 248.193H327.586V250.205H329.598V248.193Z" fill="#F0F0F0"/>
<path d="M326.399 180.661H324.387V182.673H326.399V180.661Z" fill="#F0F0F0"/>
<path d="M326.399 184.038H324.387V186.05H326.399V184.038Z" fill="#F0F0F0"/>
<path d="M326.399 187.416H324.387V189.427H326.399V187.416Z" fill="#F0F0F0"/>
<path d="M326.399 190.793H324.387V192.805H326.399V190.793Z" fill="#F0F0F0"/>
<path d="M326.399 194.17H324.387V196.182H326.399V194.17Z" fill="#F0F0F0"/>
<path d="M326.399 197.548H324.387V199.56H326.399V197.548Z" fill="#F0F0F0"/>
<path d="M326.399 200.917H324.387V202.929H326.399V200.917Z" fill="#F0F0F0"/>
<path d="M326.399 204.294H324.387V206.306H326.399V204.294Z" fill="#F0F0F0"/>
<path d="M326.399 207.672H324.387V209.684H326.399V207.672Z" fill="#F0F0F0"/>
<path d="M326.399 211.05H324.387V213.062H326.399V211.05Z" fill="#F0F0F0"/>
<path d="M326.399 214.427H324.387V216.439H326.399V214.427Z" fill="#F0F0F0"/>
<path d="M326.399 217.804H324.387V219.816H326.399V217.804Z" fill="#F0F0F0"/>
<path d="M326.399 221.182H324.387V223.194H326.399V221.182Z" fill="#F0F0F0"/>
<path d="M326.399 224.559H324.387V226.571H326.399V224.559Z" fill="#F0F0F0"/>
<path d="M326.399 227.937H324.387V229.948H326.399V227.937Z" fill="#F0F0F0"/>
<path d="M326.399 231.314H324.387V233.326H326.399V231.314Z" fill="#F0F0F0"/>
<path d="M326.399 234.684H324.387V236.696H326.399V234.684Z" fill="#F0F0F0"/>
<path d="M326.399 238.061H324.387V240.073H326.399V238.061Z" fill="#F0F0F0"/>
<path d="M323.199 180.661H321.187V182.673H323.199V180.661Z" fill="#F0F0F0"/>
<path d="M323.199 184.038H321.187V186.05H323.199V184.038Z" fill="#F0F0F0"/>
<path d="M323.199 187.416H321.187V189.427H323.199V187.416Z" fill="#F0F0F0"/>
<path d="M323.199 190.793H321.187V192.805H323.199V190.793Z" fill="#F0F0F0"/>
<path d="M323.199 194.17H321.187V196.182H323.199V194.17Z" fill="#F0F0F0"/>
<path d="M323.199 197.548H321.187V199.56H323.199V197.548Z" fill="#F0F0F0"/>
<path d="M323.199 200.917H321.187V202.929H323.199V200.917Z" fill="#F0F0F0"/>
<path d="M323.199 204.294H321.187V206.306H323.199V204.294Z" fill="#F0F0F0"/>
<path d="M323.199 207.672H321.187V209.684H323.199V207.672Z" fill="#F0F0F0"/>
<path d="M323.199 211.05H321.187V213.062H323.199V211.05Z" fill="#F0F0F0"/>
<path d="M323.199 221.182H321.187V223.194H323.199V221.182Z" fill="#F0F0F0"/>
<path d="M323.199 224.559H321.187V226.571H323.199V224.559Z" fill="#F0F0F0"/>
<path d="M323.199 227.937H321.187V229.948H323.199V227.937Z" fill="#F0F0F0"/>
<path d="M323.199 231.314H321.187V233.326H323.199V231.314Z" fill="#F0F0F0"/>
<path d="M320.008 180.661H317.996V182.673H320.008V180.661Z" fill="#F0F0F0"/>
<path d="M320.008 184.038H317.996V186.05H320.008V184.038Z" fill="#F0F0F0"/>
<path d="M320.008 187.416H317.996V189.427H320.008V187.416Z" fill="#F0F0F0"/>
<path d="M320.008 190.793H317.996V192.805H320.008V190.793Z" fill="#F0F0F0"/>
<path d="M320.008 194.17H317.996V196.182H320.008V194.17Z" fill="#F0F0F0"/>
<path d="M320.008 197.548H317.996V199.56H320.008V197.548Z" fill="#F0F0F0"/>
<path d="M320.008 200.917H317.996V202.929H320.008V200.917Z" fill="#F0F0F0"/>
<path d="M320.008 204.294H317.996V206.306H320.008V204.294Z" fill="#F0F0F0"/>
<path d="M320.008 207.672H317.996V209.684H320.008V207.672Z" fill="#F0F0F0"/>
<path d="M320.008 211.05H317.996V213.062H320.008V211.05Z" fill="#F0F0F0"/>
<path d="M320.008 221.182H317.996V223.194H320.008V221.182Z" fill="#F0F0F0"/>
<path d="M320.008 224.559H317.996V226.571H320.008V224.559Z" fill="#F0F0F0"/>
<path d="M320.008 227.937H317.996V229.948H320.008V227.937Z" fill="#F0F0F0"/>
<path d="M283.987 171.894H281.975V173.906H283.987V171.894Z" fill="#F0F0F0"/>
<path d="M283.987 175.271H281.975V177.283H283.987V175.271Z" fill="#F0F0F0"/>
<path d="M283.987 178.649H281.975V180.661H283.987V178.649Z" fill="#F0F0F0"/>
<path d="M283.987 182.026H281.975V184.038H283.987V182.026Z" fill="#F0F0F0"/>
<path d="M283.987 185.404H281.975V187.416H283.987V185.404Z" fill="#F0F0F0"/>
<path d="M283.987 188.781H281.975V190.793H283.987V188.781Z" fill="#F0F0F0"/>
<path d="M283.987 192.15H281.975V194.162H283.987V192.15Z" fill="#F0F0F0"/>
<path d="M283.987 195.528H281.975V197.54H283.987V195.528Z" fill="#F0F0F0"/>
<path d="M283.987 205.66H281.975V207.672H283.987V205.66Z" fill="#F0F0F0"/>
<path d="M283.987 209.038H281.975V211.05H283.987V209.038Z" fill="#F0F0F0"/>
<path d="M280.787 171.894H278.775V173.906H280.787V171.894Z" fill="#F0F0F0"/>
<path d="M280.787 175.271H278.775V177.283H280.787V175.271Z" fill="#F0F0F0"/>
<path d="M280.787 178.649H278.775V180.661H280.787V178.649Z" fill="#F0F0F0"/>
<path d="M280.787 182.026H278.775V184.038H280.787V182.026Z" fill="#F0F0F0"/>
<path d="M280.787 185.404H278.775V187.416H280.787V185.404Z" fill="#F0F0F0"/>
<path d="M280.787 188.781H278.775V190.793H280.787V188.781Z" fill="#F0F0F0"/>
<path d="M280.787 192.15H278.775V194.162H280.787V192.15Z" fill="#F0F0F0"/>
<path d="M280.787 195.528H278.775V197.54H280.787V195.528Z" fill="#F0F0F0"/>
<path d="M280.787 209.038H278.775V211.05H280.787V209.038Z" fill="#F0F0F0"/>
<path d="M277.588 171.894H275.576V173.906H277.588V171.894Z" fill="#F0F0F0"/>
<path d="M277.588 175.271H275.576V177.283H277.588V175.271Z" fill="#F0F0F0"/>
<path d="M277.588 178.649H275.576V180.661H277.588V178.649Z" fill="#F0F0F0"/>
<path d="M277.588 182.026H275.576V184.038H277.588V182.026Z" fill="#F0F0F0"/>
<path d="M277.588 185.404H275.576V187.416H277.588V185.404Z" fill="#F0F0F0"/>
<path d="M277.588 188.781H275.576V190.793H277.588V188.781Z" fill="#F0F0F0"/>
<path d="M277.588 192.15H275.576V194.162H277.588V192.15Z" fill="#F0F0F0"/>
<path d="M277.588 195.528H275.576V197.54H277.588V195.528Z" fill="#F0F0F0"/>
<path d="M274.388 171.894H272.376V173.906H274.388V171.894Z" fill="#F0F0F0"/>
<path d="M274.388 175.271H272.376V177.283H274.388V175.271Z" fill="#F0F0F0"/>
<path d="M274.388 178.649H272.376V180.661H274.388V178.649Z" fill="#F0F0F0"/>
<path d="M274.388 182.026H272.376V184.038H274.388V182.026Z" fill="#F0F0F0"/>
<path d="M274.388 185.404H272.376V187.416H274.388V185.404Z" fill="#F0F0F0"/>
<path d="M274.388 188.781H272.376V190.793H274.388V188.781Z" fill="#F0F0F0"/>
<path d="M274.388 195.528H272.376V197.54H274.388V195.528Z" fill="#F0F0F0"/>
<path d="M274.388 198.905H272.376V200.917H274.388V198.905Z" fill="#F0F0F0"/>
<path d="M274.388 209.038H272.376V211.05H274.388V209.038Z" fill="#F0F0F0"/>
<path d="M274.388 212.415H272.376V214.427H274.388V212.415Z" fill="#F0F0F0"/>
<path d="M274.388 215.792H272.376V217.804H274.388V215.792Z" fill="#F0F0F0"/>
<path d="M274.388 219.17H272.376V221.182H274.388V219.17Z" fill="#F0F0F0"/>
<path d="M274.388 222.547H272.376V224.559H274.388V222.547Z" fill="#F0F0F0"/>
<path d="M274.388 225.917H272.376V227.928H274.388V225.917Z" fill="#F0F0F0"/>
<path d="M274.388 229.294H272.376V231.306H274.388V229.294Z" fill="#F0F0F0"/>
<path d="M271.188 171.894H269.176V173.906H271.188V171.894Z" fill="#F0F0F0"/>
<path d="M271.188 175.271H269.176V177.283H271.188V175.271Z" fill="#F0F0F0"/>
<path d="M271.188 178.649H269.176V180.661H271.188V178.649Z" fill="#F0F0F0"/>
<path d="M271.188 182.026H269.176V184.038H271.188V182.026Z" fill="#F0F0F0"/>
<path d="M271.188 185.404H269.176V187.416H271.188V185.404Z" fill="#F0F0F0"/>
<path d="M271.188 188.781H269.176V190.793H271.188V188.781Z" fill="#F0F0F0"/>
<path d="M271.188 198.905H269.176V200.917H271.188V198.905Z" fill="#F0F0F0"/>
<path d="M271.188 202.283H269.176V204.295H271.188V202.283Z" fill="#F0F0F0"/>
<path d="M271.188 205.66H269.176V207.672H271.188V205.66Z" fill="#F0F0F0"/>
<path d="M271.188 209.038H269.176V211.05H271.188V209.038Z" fill="#F0F0F0"/>
<path d="M271.188 212.415H269.176V214.427H271.188V212.415Z" fill="#F0F0F0"/>
<path d="M271.188 215.792H269.176V217.804H271.188V215.792Z" fill="#F0F0F0"/>
<path d="M271.188 219.17H269.176V221.182H271.188V219.17Z" fill="#F0F0F0"/>
<path d="M271.188 222.547H269.176V224.559H271.188V222.547Z" fill="#F0F0F0"/>
<path d="M271.188 225.917H269.176V227.928H271.188V225.917Z" fill="#F0F0F0"/>
<path d="M271.188 229.294H269.176V231.306H271.188V229.294Z" fill="#F0F0F0"/>
<path d="M271.188 232.672H269.176V234.684H271.188V232.672Z" fill="#F0F0F0"/>
<path d="M271.188 239.427H269.176V241.439H271.188V239.427Z" fill="#F0F0F0"/>
<path d="M267.988 171.894H265.977V173.906H267.988V171.894Z" fill="#F0F0F0"/>
<path d="M267.988 175.271H265.977V177.283H267.988V175.271Z" fill="#F0F0F0"/>
<path d="M267.988 178.649H265.977V180.661H267.988V178.649Z" fill="#F0F0F0"/>
<path d="M267.988 182.026H265.977V184.038H267.988V182.026Z" fill="#F0F0F0"/>
<path d="M267.988 185.404H265.977V187.416H267.988V185.404Z" fill="#F0F0F0"/>
<path d="M267.988 188.781H265.977V190.793H267.988V188.781Z" fill="#F0F0F0"/>
<path d="M267.988 198.905H265.977V200.917H267.988V198.905Z" fill="#F0F0F0"/>
<path d="M267.988 202.283H265.977V204.295H267.988V202.283Z" fill="#F0F0F0"/>
<path d="M267.988 205.66H265.977V207.672H267.988V205.66Z" fill="#F0F0F0"/>
<path d="M267.988 209.038H265.977V211.05H267.988V209.038Z" fill="#F0F0F0"/>
<path d="M267.988 219.17H265.977V221.182H267.988V219.17Z" fill="#F0F0F0"/>
<path d="M267.988 222.547H265.977V224.559H267.988V222.547Z" fill="#F0F0F0"/>
<path d="M267.988 225.917H265.977V227.928H267.988V225.917Z" fill="#F0F0F0"/>
<path d="M267.988 229.294H265.977V231.306H267.988V229.294Z" fill="#F0F0F0"/>
<path d="M267.988 232.672H265.977V234.684H267.988V232.672Z" fill="#F0F0F0"/>
<path d="M267.988 239.427H265.977V241.439H267.988V239.427Z" fill="#F0F0F0"/>
<path d="M267.988 242.804H265.977V244.816H267.988V242.804Z" fill="#F0F0F0"/>
<path d="M238.965 203.293H236.953V205.305H238.965V203.293Z" fill="#F0F0F0"/>
<path d="M238.965 206.67H236.953V208.682H238.965V206.67Z" fill="#F0F0F0"/>
<path d="M238.965 210.048H236.953V212.06H238.965V210.048Z" fill="#F0F0F0"/>
<path d="M238.965 213.417H236.953V215.429H238.965V213.417Z" fill="#F0F0F0"/>
<path d="M238.965 216.794H236.953V218.806H238.965V216.794Z" fill="#F0F0F0"/>
<path d="M238.965 220.172H236.953V222.184H238.965V220.172Z" fill="#F0F0F0"/>
<path d="M238.965 223.549H236.953V225.561H238.965V223.549Z" fill="#F0F0F0"/>
<path d="M238.965 233.682H236.953V235.694H238.965V233.682Z" fill="#F0F0F0"/>
<path d="M238.965 237.059H236.953V239.071H238.965V237.059Z" fill="#F0F0F0"/>
<path d="M238.965 240.437H236.953V242.448H238.965V240.437Z" fill="#F0F0F0"/>
<path d="M235.765 203.293H233.753V205.305H235.765V203.293Z" fill="#F0F0F0"/>
<path d="M235.765 206.67H233.753V208.682H235.765V206.67Z" fill="#F0F0F0"/>
<path d="M235.765 210.048H233.753V212.06H235.765V210.048Z" fill="#F0F0F0"/>
<path d="M235.765 213.417H233.753V215.429H235.765V213.417Z" fill="#F0F0F0"/>
<path d="M235.765 216.794H233.753V218.806H235.765V216.794Z" fill="#F0F0F0"/>
<path d="M235.765 220.172H233.753V222.184H235.765V220.172Z" fill="#F0F0F0"/>
<path d="M235.765 223.549H233.753V225.561H235.765V223.549Z" fill="#F0F0F0"/>
<path d="M232.566 203.293H230.554V205.305H232.566V203.293Z" fill="#F0F0F0"/>
<path d="M232.566 206.67H230.554V208.682H232.566V206.67Z" fill="#F0F0F0"/>
<path d="M232.566 210.048H230.554V212.06H232.566V210.048Z" fill="#F0F0F0"/>
<path d="M232.566 213.417H230.554V215.429H232.566V213.417Z" fill="#F0F0F0"/>
<path d="M232.566 216.794H230.554V218.806H232.566V216.794Z" fill="#F0F0F0"/>
<path d="M232.566 220.172H230.554V222.184H232.566V220.172Z" fill="#F0F0F0"/>
<path d="M232.566 223.549H230.554V225.561H232.566V223.549Z" fill="#F0F0F0"/>
<path d="M229.366 203.293H227.354V205.305H229.366V203.293Z" fill="#F0F0F0"/>
<path d="M229.366 206.67H227.354V208.682H229.366V206.67Z" fill="#F0F0F0"/>
<path d="M229.366 210.048H227.354V212.06H229.366V210.048Z" fill="#F0F0F0"/>
<path d="M229.366 213.417H227.354V215.429H229.366V213.417Z" fill="#F0F0F0"/>
<path d="M229.366 216.794H227.354V218.806H229.366V216.794Z" fill="#F0F0F0"/>
<path d="M229.366 220.172H227.354V222.184H229.366V220.172Z" fill="#F0F0F0"/>
<path d="M229.366 223.549H227.354V225.561H229.366V223.549Z" fill="#F0F0F0"/>
<path d="M229.366 226.927H227.354V228.939H229.366V226.927Z" fill="#F0F0F0"/>
<path d="M229.366 230.304H227.354V232.316H229.366V230.304Z" fill="#F0F0F0"/>
<path d="M229.366 233.682H227.354V235.694H229.366V233.682Z" fill="#F0F0F0"/>
<path d="M229.366 237.059H227.354V239.071H229.366V237.059Z" fill="#F0F0F0"/>
<path d="M226.166 203.293H224.154V205.305H226.166V203.293Z" fill="#F0F0F0"/>
<path d="M226.166 206.67H224.154V208.682H226.166V206.67Z" fill="#F0F0F0"/>
<path d="M226.166 210.048H224.154V212.06H226.166V210.048Z" fill="#F0F0F0"/>
<path d="M226.166 213.417H224.154V215.429H226.166V213.417Z" fill="#F0F0F0"/>
<path d="M226.166 216.794H224.154V218.806H226.166V216.794Z" fill="#F0F0F0"/>
<path d="M226.166 220.172H224.154V222.184H226.166V220.172Z" fill="#F0F0F0"/>
<path d="M226.166 223.549H224.154V225.561H226.166V223.549Z" fill="#F0F0F0"/>
<path d="M226.166 226.927H224.154V228.939H226.166V226.927Z" fill="#F0F0F0"/>
<path d="M226.166 230.304H224.154V232.316H226.166V230.304Z" fill="#F0F0F0"/>
<path d="M226.166 233.682H224.154V235.694H226.166V233.682Z" fill="#F0F0F0"/>
<path d="M226.166 237.059H224.154V239.071H226.166V237.059Z" fill="#F0F0F0"/>
<path d="M226.166 240.437H224.154V242.448H226.166V240.437Z" fill="#F0F0F0"/>
<path d="M226.166 250.561H224.154V252.572H226.166V250.561Z" fill="#F0F0F0"/>
<path d="M226.166 253.938H224.154V255.95H226.166V253.938Z" fill="#F0F0F0"/>
<path d="M222.967 203.293H220.955V205.305H222.967V203.293Z" fill="#F0F0F0"/>
<path d="M222.967 206.67H220.955V208.682H222.967V206.67Z" fill="#F0F0F0"/>
<path d="M222.967 210.048H220.955V212.06H222.967V210.048Z" fill="#F0F0F0"/>
<path d="M222.967 220.172H220.955V222.184H222.967V220.172Z" fill="#F0F0F0"/>
<path d="M222.967 223.549H220.955V225.561H222.967V223.549Z" fill="#F0F0F0"/>
<path d="M222.967 226.927H220.955V228.939H222.967V226.927Z" fill="#F0F0F0"/>
<path d="M222.967 230.304H220.955V232.316H222.967V230.304Z" fill="#F0F0F0"/>
<path d="M222.967 233.682H220.955V235.694H222.967V233.682Z" fill="#F0F0F0"/>
<path d="M222.967 237.059H220.955V239.071H222.967V237.059Z" fill="#F0F0F0"/>
<path d="M222.967 240.437H220.955V242.448H222.967V240.437Z" fill="#F0F0F0"/>
<path d="M222.967 250.561H220.955V252.572H222.967V250.561Z" fill="#F0F0F0"/>
<path d="M222.967 253.938H220.955V255.95H222.967V253.938Z" fill="#F0F0F0"/>
<path d="M222.967 257.315H220.955V259.327H222.967V257.315Z" fill="#F0F0F0"/>
<path d="M189.443 183.028H187.431V185.04H189.443V183.028Z" fill="#F0F0F0"/>
<path d="M189.443 186.406H187.431V188.418H189.443V186.406Z" fill="#F0F0F0"/>
<path d="M189.443 189.783H187.431V191.795H189.443V189.783Z" fill="#F0F0F0"/>
<path d="M189.443 193.161H187.431V195.173H189.443V193.161Z" fill="#F0F0F0"/>
<path d="M189.443 196.538H187.431V198.55H189.443V196.538Z" fill="#F0F0F0"/>
<path d="M189.443 199.916H187.431V201.927H189.443V199.916Z" fill="#F0F0F0"/>
<path d="M189.443 203.293H187.431V205.305H189.443V203.293Z" fill="#F0F0F0"/>
<path d="M189.443 206.67H187.431V208.682H189.443V206.67Z" fill="#F0F0F0"/>
<path d="M189.443 210.048H187.431V212.06H189.443V210.048Z" fill="#F0F0F0"/>
<path d="M189.443 213.417H187.431V215.429H189.443V213.417Z" fill="#F0F0F0"/>
<path d="M189.443 216.794H187.431V218.806H189.443V216.794Z" fill="#F0F0F0"/>
<path d="M189.443 220.172H187.431V222.184H189.443V220.172Z" fill="#F0F0F0"/>
<path d="M189.443 223.549H187.431V225.561H189.443V223.549Z" fill="#F0F0F0"/>
<path d="M189.443 226.927H187.431V228.939H189.443V226.927Z" fill="#F0F0F0"/>
<path d="M189.443 230.304H187.431V232.316H189.443V230.304Z" fill="#F0F0F0"/>
<path d="M189.443 233.682H187.431V235.694H189.443V233.682Z" fill="#F0F0F0"/>
<path d="M189.443 237.059H187.431V239.071H189.443V237.059Z" fill="#F0F0F0"/>
<path d="M189.443 240.437H187.431V242.448H189.443V240.437Z" fill="#F0F0F0"/>
<path d="M189.443 243.814H187.431V245.826H189.443V243.814Z" fill="#F0F0F0"/>
<path d="M189.443 247.183H187.431V249.195H189.443V247.183Z" fill="#F0F0F0"/>
<path d="M189.443 250.561H187.431V252.572H189.443V250.561Z" fill="#F0F0F0"/>
<path d="M189.443 253.938H187.431V255.95H189.443V253.938Z" fill="#F0F0F0"/>
<path d="M189.443 257.315H187.431V259.327H189.443V257.315Z" fill="#F0F0F0"/>
<path d="M186.243 183.028H184.231V185.04H186.243V183.028Z" fill="#F0F0F0"/>
<path d="M186.243 186.406H184.231V188.418H186.243V186.406Z" fill="#F0F0F0"/>
<path d="M186.243 189.783H184.231V191.795H186.243V189.783Z" fill="#F0F0F0"/>
<path d="M186.243 193.161H184.231V195.173H186.243V193.161Z" fill="#F0F0F0"/>
<path d="M186.243 196.538H184.231V198.55H186.243V196.538Z" fill="#F0F0F0"/>
<path d="M186.243 199.916H184.231V201.927H186.243V199.916Z" fill="#F0F0F0"/>
<path d="M186.243 203.293H184.231V205.305H186.243V203.293Z" fill="#F0F0F0"/>
<path d="M186.243 206.67H184.231V208.682H186.243V206.67Z" fill="#F0F0F0"/>
<path d="M186.243 210.048H184.231V212.06H186.243V210.048Z" fill="#F0F0F0"/>
<path d="M186.243 213.417H184.231V215.429H186.243V213.417Z" fill="#F0F0F0"/>
<path d="M186.243 216.794H184.231V218.806H186.243V216.794Z" fill="#F0F0F0"/>
<path d="M186.243 220.172H184.231V222.184H186.243V220.172Z" fill="#F0F0F0"/>
<path d="M186.243 223.549H184.231V225.561H186.243V223.549Z" fill="#F0F0F0"/>
<path d="M186.243 226.927H184.231V228.939H186.243V226.927Z" fill="#F0F0F0"/>
<path d="M186.243 230.304H184.231V232.316H186.243V230.304Z" fill="#F0F0F0"/>
<path d="M186.243 233.682H184.231V235.694H186.243V233.682Z" fill="#F0F0F0"/>
<path d="M186.243 237.059H184.231V239.071H186.243V237.059Z" fill="#F0F0F0"/>
<path d="M186.243 240.437H184.231V242.448H186.243V240.437Z" fill="#F0F0F0"/>
<path d="M186.243 243.814H184.231V245.826H186.243V243.814Z" fill="#F0F0F0"/>
<path d="M183.043 183.028H181.031V185.04H183.043V183.028Z" fill="#F0F0F0"/>
<path d="M183.043 186.406H181.031V188.418H183.043V186.406Z" fill="#F0F0F0"/>
<path d="M183.043 189.783H181.031V191.795H183.043V189.783Z" fill="#F0F0F0"/>
<path d="M183.043 193.161H181.031V195.173H183.043V193.161Z" fill="#F0F0F0"/>
<path d="M183.043 196.538H181.031V198.55H183.043V196.538Z" fill="#F0F0F0"/>
<path d="M183.043 199.916H181.031V201.927H183.043V199.916Z" fill="#F0F0F0"/>
<path d="M183.043 203.293H181.031V205.305H183.043V203.293Z" fill="#F0F0F0"/>
<path d="M183.043 206.67H181.031V208.682H183.043V206.67Z" fill="#F0F0F0"/>
<path d="M183.043 210.048H181.031V212.06H183.043V210.048Z" fill="#F0F0F0"/>
<path d="M183.043 213.417H181.031V215.429H183.043V213.417Z" fill="#F0F0F0"/>
<path d="M183.043 216.794H181.031V218.806H183.043V216.794Z" fill="#F0F0F0"/>
<path d="M183.043 220.172H181.031V222.184H183.043V220.172Z" fill="#F0F0F0"/>
<path d="M183.043 223.549H181.031V225.561H183.043V223.549Z" fill="#F0F0F0"/>
<path d="M183.043 226.927H181.031V228.939H183.043V226.927Z" fill="#F0F0F0"/>
<path d="M183.043 230.304H181.031V232.316H183.043V230.304Z" fill="#F0F0F0"/>
<path d="M183.043 233.682H181.031V235.694H183.043V233.682Z" fill="#F0F0F0"/>
<path d="M183.043 237.059H181.031V239.071H183.043V237.059Z" fill="#F0F0F0"/>
<path d="M183.043 240.437H181.031V242.448H183.043V240.437Z" fill="#F0F0F0"/>
<path d="M183.043 243.814H181.031V245.826H183.043V243.814Z" fill="#F0F0F0"/>
<path d="M179.843 183.028H177.832V185.04H179.843V183.028Z" fill="#F0F0F0"/>
<path d="M179.843 186.406H177.832V188.418H179.843V186.406Z" fill="#F0F0F0"/>
<path d="M179.843 189.783H177.832V191.795H179.843V189.783Z" fill="#F0F0F0"/>
<path d="M179.843 193.161H177.832V195.173H179.843V193.161Z" fill="#F0F0F0"/>
<path d="M179.843 196.538H177.832V198.55H179.843V196.538Z" fill="#F0F0F0"/>
<path d="M179.843 199.916H177.832V201.927H179.843V199.916Z" fill="#F0F0F0"/>
<path d="M179.843 203.293H177.832V205.305H179.843V203.293Z" fill="#F0F0F0"/>
<path d="M179.843 206.67H177.832V208.682H179.843V206.67Z" fill="#F0F0F0"/>
<path d="M179.843 210.048H177.832V212.06H179.843V210.048Z" fill="#F0F0F0"/>
<path d="M179.843 213.417H177.832V215.429H179.843V213.417Z" fill="#F0F0F0"/>
<path d="M179.843 216.794H177.832V218.806H179.843V216.794Z" fill="#F0F0F0"/>
<path d="M179.843 220.172H177.832V222.184H179.843V220.172Z" fill="#F0F0F0"/>
<path d="M179.843 223.549H177.832V225.561H179.843V223.549Z" fill="#F0F0F0"/>
<path d="M179.843 226.927H177.832V228.939H179.843V226.927Z" fill="#F0F0F0"/>
<path d="M179.843 230.304H177.832V232.316H179.843V230.304Z" fill="#F0F0F0"/>
<path d="M176.644 183.028H174.632V185.04H176.644V183.028Z" fill="#F0F0F0"/>
<path d="M176.644 186.406H174.632V188.418H176.644V186.406Z" fill="#F0F0F0"/>
<path d="M176.644 189.783H174.632V191.795H176.644V189.783Z" fill="#F0F0F0"/>
<path d="M176.644 193.161H174.632V195.173H176.644V193.161Z" fill="#F0F0F0"/>
<path d="M176.644 196.538H174.632V198.55H176.644V196.538Z" fill="#F0F0F0"/>
<path d="M176.644 199.916H174.632V201.927H176.644V199.916Z" fill="#F0F0F0"/>
<path d="M176.644 203.293H174.632V205.305H176.644V203.293Z" fill="#F0F0F0"/>
<path d="M176.644 206.67H174.632V208.682H176.644V206.67Z" fill="#F0F0F0"/>
<path d="M176.644 210.048H174.632V212.06H176.644V210.048Z" fill="#F0F0F0"/>
<path d="M176.644 213.417H174.632V215.429H176.644V213.417Z" fill="#F0F0F0"/>
<path d="M176.644 216.794H174.632V218.806H176.644V216.794Z" fill="#F0F0F0"/>
<path d="M176.644 220.172H174.632V222.184H176.644V220.172Z" fill="#F0F0F0"/>
<path d="M176.644 223.549H174.632V225.561H176.644V223.549Z" fill="#F0F0F0"/>
<path d="M173.445 183.028H171.433V185.04H173.445V183.028Z" fill="#F0F0F0"/>
<path d="M173.445 186.406H171.433V188.418H173.445V186.406Z" fill="#F0F0F0"/>
<path d="M173.445 189.783H171.433V191.795H173.445V189.783Z" fill="#F0F0F0"/>
<path d="M173.445 193.161H171.433V195.173H173.445V193.161Z" fill="#F0F0F0"/>
<path d="M173.445 196.538H171.433V198.55H173.445V196.538Z" fill="#F0F0F0"/>
<path d="M173.445 199.916H171.433V201.927H173.445V199.916Z" fill="#F0F0F0"/>
<path d="M173.445 203.293H171.433V205.305H173.445V203.293Z" fill="#F0F0F0"/>
<path d="M173.445 206.67H171.433V208.682H173.445V206.67Z" fill="#F0F0F0"/>
<path d="M173.445 210.048H171.433V212.06H173.445V210.048Z" fill="#F0F0F0"/>
<path d="M173.445 213.417H171.433V215.429H173.445V213.417Z" fill="#F0F0F0"/>
<path d="M173.445 216.794H171.433V218.806H173.445V216.794Z" fill="#F0F0F0"/>
<path d="M173.445 220.172H171.433V222.184H173.445V220.172Z" fill="#F0F0F0"/>
<path d="M360.165 182.026H358.153V184.038H360.165V182.026Z" fill="#F0F0F0"/>
<path d="M360.165 185.404H358.153V187.416H360.165V185.404Z" fill="#F0F0F0"/>
<path d="M360.165 188.781H358.153V190.793H360.165V188.781Z" fill="#F0F0F0"/>
<path d="M360.165 192.15H358.153V194.162H360.165V192.15Z" fill="#F0F0F0"/>
<path d="M360.165 195.528H358.153V197.54H360.165V195.528Z" fill="#F0F0F0"/>
<path d="M360.165 198.905H358.153V200.917H360.165V198.905Z" fill="#F0F0F0"/>
<path d="M360.165 202.283H358.153V204.295H360.165V202.283Z" fill="#F0F0F0"/>
<path d="M360.165 205.66H358.153V207.672H360.165V205.66Z" fill="#F0F0F0"/>
<path d="M360.165 209.038H358.153V211.05H360.165V209.038Z" fill="#F0F0F0"/>
<path d="M360.165 212.415H358.153V214.427H360.165V212.415Z" fill="#F0F0F0"/>
<path d="M360.165 215.792H358.153V217.804H360.165V215.792Z" fill="#F0F0F0"/>
<path d="M360.165 219.17H358.153V221.182H360.165V219.17Z" fill="#F0F0F0"/>
<path d="M360.165 222.547H358.153V224.559H360.165V222.547Z" fill="#F0F0F0"/>
<path d="M360.165 225.917H358.153V227.928H360.165V225.917Z" fill="#F0F0F0"/>
<path d="M360.165 229.294H358.153V231.306H360.165V229.294Z" fill="#F0F0F0"/>
<path d="M360.165 232.672H358.153V234.684H360.165V232.672Z" fill="#F0F0F0"/>
<path d="M360.165 236.049H358.153V238.061H360.165V236.049Z" fill="#F0F0F0"/>
<path d="M360.165 242.804H358.153V244.816H360.165V242.804Z" fill="#F0F0F0"/>
<path d="M360.165 246.181H358.153V248.193H360.165V246.181Z" fill="#F0F0F0"/>
<path d="M360.165 249.559H358.153V251.571H360.165V249.559Z" fill="#F0F0F0"/>
<path d="M360.165 252.936H358.153V254.948H360.165V252.936Z" fill="#F0F0F0"/>
<path d="M360.165 256.306H358.153V258.318H360.165V256.306Z" fill="#F0F0F0"/>
<path d="M356.966 182.026H354.954V184.038H356.966V182.026Z" fill="#F0F0F0"/>
<path d="M356.966 185.404H354.954V187.416H356.966V185.404Z" fill="#F0F0F0"/>
<path d="M356.966 188.781H354.954V190.793H356.966V188.781Z" fill="#F0F0F0"/>
<path d="M356.966 192.15H354.954V194.162H356.966V192.15Z" fill="#F0F0F0"/>
<path d="M356.966 195.528H354.954V197.54H356.966V195.528Z" fill="#F0F0F0"/>
<path d="M356.966 198.905H354.954V200.917H356.966V198.905Z" fill="#F0F0F0"/>
<path d="M356.966 202.283H354.954V204.295H356.966V202.283Z" fill="#F0F0F0"/>
<path d="M356.966 205.66H354.954V207.672H356.966V205.66Z" fill="#F0F0F0"/>
<path d="M356.966 209.038H354.954V211.05H356.966V209.038Z" fill="#F0F0F0"/>
<path d="M356.966 212.415H354.954V214.427H356.966V212.415Z" fill="#F0F0F0"/>
<path d="M356.966 215.792H354.954V217.804H356.966V215.792Z" fill="#F0F0F0"/>
<path d="M356.966 219.17H354.954V221.182H356.966V219.17Z" fill="#F0F0F0"/>
<path d="M356.966 222.547H354.954V224.559H356.966V222.547Z" fill="#F0F0F0"/>
<path d="M356.966 225.917H354.954V227.928H356.966V225.917Z" fill="#F0F0F0"/>
<path d="M356.966 229.294H354.954V231.306H356.966V229.294Z" fill="#F0F0F0"/>
<path d="M356.966 232.672H354.954V234.684H356.966V232.672Z" fill="#F0F0F0"/>
<path d="M356.966 252.936H354.954V254.948H356.966V252.936Z" fill="#F0F0F0"/>
<path d="M356.966 256.306H354.954V258.318H356.966V256.306Z" fill="#F0F0F0"/>
<path d="M353.774 182.026H351.762V184.038H353.774V182.026Z" fill="#F0F0F0"/>
<path d="M353.774 185.404H351.762V187.416H353.774V185.404Z" fill="#F0F0F0"/>
<path d="M353.774 188.781H351.762V190.793H353.774V188.781Z" fill="#F0F0F0"/>
<path d="M353.774 192.15H351.762V194.162H353.774V192.15Z" fill="#F0F0F0"/>
<path d="M353.774 195.528H351.762V197.54H353.774V195.528Z" fill="#F0F0F0"/>
<path d="M353.774 198.905H351.762V200.917H353.774V198.905Z" fill="#F0F0F0"/>
<path d="M353.774 202.283H351.762V204.295H353.774V202.283Z" fill="#F0F0F0"/>
<path d="M353.774 205.66H351.762V207.672H353.774V205.66Z" fill="#F0F0F0"/>
<path d="M353.774 209.038H351.762V211.05H353.774V209.038Z" fill="#F0F0F0"/>
<path d="M353.774 212.415H351.762V214.427H353.774V212.415Z" fill="#F0F0F0"/>
<path d="M353.774 215.792H351.762V217.804H353.774V215.792Z" fill="#F0F0F0"/>
<path d="M353.774 219.17H351.762V221.182H353.774V219.17Z" fill="#F0F0F0"/>
<path d="M353.774 222.547H351.762V224.559H353.774V222.547Z" fill="#F0F0F0"/>
<path d="M353.774 225.917H351.762V227.928H353.774V225.917Z" fill="#F0F0F0"/>
<path d="M353.774 229.294H351.762V231.306H353.774V229.294Z" fill="#F0F0F0"/>
<path d="M353.774 232.672H351.762V234.684H353.774V232.672Z" fill="#F0F0F0"/>
<path d="M353.774 239.427H351.762V241.439H353.774V239.427Z" fill="#F0F0F0"/>
<path d="M353.774 242.804H351.762V244.816H353.774V242.804Z" fill="#F0F0F0"/>
<path d="M353.774 246.181H351.762V248.193H353.774V246.181Z" fill="#F0F0F0"/>
<path d="M353.774 249.559H351.762V251.571H353.774V249.559Z" fill="#F0F0F0"/>
<path d="M353.774 256.306H351.762V258.318H353.774V256.306Z" fill="#F0F0F0"/>
<path d="M297.965 205.66H295.953V207.672H297.965V205.66Z" fill="#F0F0F0"/>
<path d="M297.965 209.038H295.953V211.05H297.965V209.038Z" fill="#F0F0F0"/>
<path d="M297.965 212.415H295.953V214.427H297.965V212.415Z" fill="#F0F0F0"/>
<path d="M297.965 215.792H295.953V217.804H297.965V215.792Z" fill="#F0F0F0"/>
<path d="M297.965 219.17H295.953V221.182H297.965V219.17Z" fill="#F0F0F0"/>
<path d="M297.965 222.547H295.953V224.559H297.965V222.547Z" fill="#F0F0F0"/>
<path d="M297.965 225.917H295.953V227.928H297.965V225.917Z" fill="#F0F0F0"/>
<path d="M297.965 229.294H295.953V231.306H297.965V229.294Z" fill="#F0F0F0"/>
<path d="M297.965 232.672H295.953V234.684H297.965V232.672Z" fill="#F0F0F0"/>
<path d="M297.965 236.049H295.953V238.061H297.965V236.049Z" fill="#F0F0F0"/>
<path d="M297.965 239.427H295.953V241.439H297.965V239.427Z" fill="#F0F0F0"/>
<path d="M297.965 242.804H295.953V244.816H297.965V242.804Z" fill="#F0F0F0"/>
<path d="M297.965 246.181H295.953V248.193H297.965V246.181Z" fill="#F0F0F0"/>
<path d="M297.965 252.936H295.953V254.948H297.965V252.936Z" fill="#F0F0F0"/>
<path d="M297.965 256.306H295.953V258.318H297.965V256.306Z" fill="#F0F0F0"/>
<path d="M297.965 259.683H295.953V261.695H297.965V259.683Z" fill="#F0F0F0"/>
<path d="M297.965 263.061H295.953V265.072H297.965V263.061Z" fill="#F0F0F0"/>
<path d="M297.965 269.815H295.953V271.827H297.965V269.815Z" fill="#F0F0F0"/>
<path d="M297.965 273.193H295.953V275.205H297.965V273.193Z" fill="#F0F0F0"/>
<path d="M297.965 276.57H295.953V278.582H297.965V276.57Z" fill="#F0F0F0"/>
<path d="M294.765 205.66H292.753V207.672H294.765V205.66Z" fill="#F0F0F0"/>
<path d="M294.765 209.038H292.753V211.05H294.765V209.038Z" fill="#F0F0F0"/>
<path d="M294.765 212.415H292.753V214.427H294.765V212.415Z" fill="#F0F0F0"/>
<path d="M294.765 215.792H292.753V217.804H294.765V215.792Z" fill="#F0F0F0"/>
<path d="M294.765 219.17H292.753V221.182H294.765V219.17Z" fill="#F0F0F0"/>
<path d="M294.765 222.547H292.753V224.559H294.765V222.547Z" fill="#F0F0F0"/>
<path d="M294.765 225.917H292.753V227.928H294.765V225.917Z" fill="#F0F0F0"/>
<path d="M294.765 229.294H292.753V231.306H294.765V229.294Z" fill="#F0F0F0"/>
<path d="M294.765 232.672H292.753V234.684H294.765V232.672Z" fill="#F0F0F0"/>
<path d="M294.765 236.049H292.753V238.061H294.765V236.049Z" fill="#F0F0F0"/>
<path d="M294.765 239.427H292.753V241.439H294.765V239.427Z" fill="#F0F0F0"/>
<path d="M294.765 242.804H292.753V244.816H294.765V242.804Z" fill="#F0F0F0"/>
<path d="M294.765 246.181H292.753V248.193H294.765V246.181Z" fill="#F0F0F0"/>
<path d="M294.765 256.306H292.753V258.318H294.765V256.306Z" fill="#F0F0F0"/>
<path d="M294.765 259.683H292.753V261.695H294.765V259.683Z" fill="#F0F0F0"/>
<path d="M294.765 266.438H292.753V268.45H294.765V266.438Z" fill="#F0F0F0"/>
<path d="M294.765 269.815H292.753V271.827H294.765V269.815Z" fill="#F0F0F0"/>
<path d="M294.765 273.193H292.753V275.205H294.765V273.193Z" fill="#F0F0F0"/>
<path d="M294.765 276.57H292.753V278.582H294.765V276.57Z" fill="#F0F0F0"/>
<path d="M291.566 205.66H289.554V207.672H291.566V205.66Z" fill="#F0F0F0"/>
<path d="M291.566 209.038H289.554V211.05H291.566V209.038Z" fill="#F0F0F0"/>
<path d="M291.566 212.415H289.554V214.427H291.566V212.415Z" fill="#F0F0F0"/>
<path d="M291.566 215.792H289.554V217.804H291.566V215.792Z" fill="#F0F0F0"/>
<path d="M291.566 219.17H289.554V221.182H291.566V219.17Z" fill="#F0F0F0"/>
<path d="M291.566 222.547H289.554V224.559H291.566V222.547Z" fill="#F0F0F0"/>
<path d="M291.566 225.917H289.554V227.928H291.566V225.917Z" fill="#F0F0F0"/>
<path d="M291.566 229.294H289.554V231.306H291.566V229.294Z" fill="#F0F0F0"/>
<path d="M291.566 232.672H289.554V234.684H291.566V232.672Z" fill="#F0F0F0"/>
<path d="M291.566 236.049H289.554V238.061H291.566V236.049Z" fill="#F0F0F0"/>
<path d="M291.566 239.427H289.554V241.439H291.566V239.427Z" fill="#F0F0F0"/>
<path d="M291.566 242.804H289.554V244.816H291.566V242.804Z" fill="#F0F0F0"/>
<path d="M291.566 246.181H289.554V248.193H291.566V246.181Z" fill="#F0F0F0"/>
<path d="M291.566 249.559H289.554V251.571H291.566V249.559Z" fill="#F0F0F0"/>
<path d="M291.566 256.306H289.554V258.318H291.566V256.306Z" fill="#F0F0F0"/>
<path d="M291.566 263.061H289.554V265.072H291.566V263.061Z" fill="#F0F0F0"/>
<path d="M291.566 266.438H289.554V268.45H291.566V266.438Z" fill="#F0F0F0"/>
<path d="M291.566 269.815H289.554V271.827H291.566V269.815Z" fill="#F0F0F0"/>
<path d="M291.566 273.193H289.554V275.205H291.566V273.193Z" fill="#F0F0F0"/>
<path d="M291.566 276.57H289.554V278.582H291.566V276.57Z" fill="#F0F0F0"/>
<path d="M310.998 224.915H308.986V226.927H310.998V224.915Z" fill="#F0F0F0"/>
<path d="M310.998 228.292H308.986V230.304H310.998V228.292Z" fill="#F0F0F0"/>
<path d="M310.998 231.67H308.986V233.682H310.998V231.67Z" fill="#F0F0F0"/>
<path d="M310.998 235.039H308.986V237.051H310.998V235.039Z" fill="#F0F0F0"/>
<path d="M310.998 238.417H308.986V240.428H310.998V238.417Z" fill="#F0F0F0"/>
<path d="M310.998 241.794H308.986V243.806H310.998V241.794Z" fill="#F0F0F0"/>
<path d="M310.998 251.926H308.986V253.938H310.998V251.926Z" fill="#F0F0F0"/>
<path d="M310.998 255.304H308.986V257.316H310.998V255.304Z" fill="#F0F0F0"/>
<path d="M310.998 258.681H308.986V260.693H310.998V258.681Z" fill="#F0F0F0"/>
<path d="M310.998 262.059H308.986V264.071H310.998V262.059Z" fill="#F0F0F0"/>
<path d="M310.998 265.436H308.986V267.448H310.998V265.436Z" fill="#F0F0F0"/>
<path d="M310.998 268.805H308.986V270.817H310.998V268.805Z" fill="#F0F0F0"/>
<path d="M310.998 272.183H308.986V274.195H310.998V272.183Z" fill="#F0F0F0"/>
<path d="M307.799 224.915H305.787V226.927H307.799V224.915Z" fill="#F0F0F0"/>
<path d="M307.799 228.292H305.787V230.304H307.799V228.292Z" fill="#F0F0F0"/>
<path d="M307.799 231.67H305.787V233.682H307.799V231.67Z" fill="#F0F0F0"/>
<path d="M307.799 235.039H305.787V237.051H307.799V235.039Z" fill="#F0F0F0"/>
<path d="M307.799 238.417H305.787V240.428H307.799V238.417Z" fill="#F0F0F0"/>
<path d="M307.799 241.794H305.787V243.806H307.799V241.794Z" fill="#F0F0F0"/>
<path d="M307.799 251.926H305.787V253.938H307.799V251.926Z" fill="#F0F0F0"/>
<path d="M307.799 255.304H305.787V257.316H307.799V255.304Z" fill="#F0F0F0"/>
<path d="M307.799 258.681H305.787V260.693H307.799V258.681Z" fill="#F0F0F0"/>
<path d="M307.799 262.059H305.787V264.071H307.799V262.059Z" fill="#F0F0F0"/>
<path d="M307.799 265.436H305.787V267.448H307.799V265.436Z" fill="#F0F0F0"/>
<path d="M307.799 268.805H305.787V270.817H307.799V268.805Z" fill="#F0F0F0"/>
<path d="M307.799 275.56H305.787V277.572H307.799V275.56Z" fill="#F0F0F0"/>
<path d="M201.522 210.048H199.51V212.06H201.522V210.048Z" fill="#F0F0F0"/>
<path d="M201.522 213.417H199.51V215.429H201.522V213.417Z" fill="#F0F0F0"/>
<path d="M201.522 216.794H199.51V218.806H201.522V216.794Z" fill="#F0F0F0"/>
<path d="M201.522 220.172H199.51V222.184H201.522V220.172Z" fill="#F0F0F0"/>
<path d="M201.522 223.549H199.51V225.561H201.522V223.549Z" fill="#F0F0F0"/>
<path d="M201.522 226.927H199.51V228.939H201.522V226.927Z" fill="#F0F0F0"/>
<path d="M201.522 230.304H199.51V232.316H201.522V230.304Z" fill="#F0F0F0"/>
<path d="M201.522 233.682H199.51V235.694H201.522V233.682Z" fill="#F0F0F0"/>
<path d="M201.522 237.059H199.51V239.071H201.522V237.059Z" fill="#F0F0F0"/>
<path d="M201.522 240.437H199.51V242.448H201.522V240.437Z" fill="#F0F0F0"/>
<path d="M201.522 243.814H199.51V245.826H201.522V243.814Z" fill="#F0F0F0"/>
<path d="M201.522 250.561H199.51V252.572H201.522V250.561Z" fill="#F0F0F0"/>
<path d="M201.522 253.938H199.51V255.95H201.522V253.938Z" fill="#F0F0F0"/>
<path d="M201.522 257.315H199.51V259.327H201.522V257.315Z" fill="#F0F0F0"/>
<path d="M201.522 260.693H199.51V262.705H201.522V260.693Z" fill="#F0F0F0"/>
<path d="M201.522 264.07H199.51V266.082H201.522V264.07Z" fill="#F0F0F0"/>
<path d="M201.522 267.448H199.51V269.46H201.522V267.448Z" fill="#F0F0F0"/>
<path d="M201.522 270.825H199.51V272.837H201.522V270.825Z" fill="#F0F0F0"/>
<path d="M201.522 274.203H199.51V276.215H201.522V274.203Z" fill="#F0F0F0"/>
<path d="M198.331 210.048H196.319V212.06H198.331V210.048Z" fill="#F0F0F0"/>
<path d="M198.331 213.417H196.319V215.429H198.331V213.417Z" fill="#F0F0F0"/>
<path d="M198.331 216.794H196.319V218.806H198.331V216.794Z" fill="#F0F0F0"/>
<path d="M198.331 220.172H196.319V222.184H198.331V220.172Z" fill="#F0F0F0"/>
<path d="M198.331 223.549H196.319V225.561H198.331V223.549Z" fill="#F0F0F0"/>
<path d="M198.331 226.927H196.319V228.939H198.331V226.927Z" fill="#F0F0F0"/>
<path d="M198.331 230.304H196.319V232.316H198.331V230.304Z" fill="#F0F0F0"/>
<path d="M198.331 233.682H196.319V235.694H198.331V233.682Z" fill="#F0F0F0"/>
<path d="M198.331 237.059H196.319V239.071H198.331V237.059Z" fill="#F0F0F0"/>
<path d="M198.331 240.437H196.319V242.448H198.331V240.437Z" fill="#F0F0F0"/>
<path d="M198.331 243.814H196.319V245.826H198.331V243.814Z" fill="#F0F0F0"/>
<path d="M198.331 247.183H196.319V249.195H198.331V247.183Z" fill="#F0F0F0"/>
<path d="M198.331 250.561H196.319V252.572H198.331V250.561Z" fill="#F0F0F0"/>
<path d="M198.331 253.938H196.319V255.95H198.331V253.938Z" fill="#F0F0F0"/>
<path d="M198.331 257.315H196.319V259.327H198.331V257.315Z" fill="#F0F0F0"/>
<path d="M198.331 260.693H196.319V262.705H198.331V260.693Z" fill="#F0F0F0"/>
<path d="M198.331 264.07H196.319V266.082H198.331V264.07Z" fill="#F0F0F0"/>
<path d="M198.331 267.448H196.319V269.46H198.331V267.448Z" fill="#F0F0F0"/>
<path d="M198.331 270.825H196.319V272.837H198.331V270.825Z" fill="#F0F0F0"/>
<path d="M198.331 274.203H196.319V276.215H198.331V274.203Z" fill="#F0F0F0"/>
<path d="M217.286 223.194H215.274V225.206H217.286V223.194Z" fill="#F0F0F0"/>
<path d="M217.286 226.571H215.274V228.583H217.286V226.571Z" fill="#F0F0F0"/>
<path d="M217.286 229.949H215.274V231.961H217.286V229.949Z" fill="#F0F0F0"/>
<path d="M217.286 233.326H215.274V235.338H217.286V233.326Z" fill="#F0F0F0"/>
<path d="M217.286 236.704H215.274V238.716H217.286V236.704Z" fill="#F0F0F0"/>
<path d="M217.286 240.081H215.274V242.093H217.286V240.081Z" fill="#F0F0F0"/>
<path d="M217.286 243.458H215.274V245.47H217.286V243.458Z" fill="#F0F0F0"/>
<path d="M217.286 246.828H215.274V248.84H217.286V246.828Z" fill="#F0F0F0"/>
<path d="M217.286 250.205H215.274V252.217H217.286V250.205Z" fill="#F0F0F0"/>
<path d="M217.286 253.583H215.274V255.594H217.286V253.583Z" fill="#F0F0F0"/>
<path d="M214.087 223.194H212.075V225.206H214.087V223.194Z" fill="#F0F0F0"/>
<path d="M214.087 226.571H212.075V228.583H214.087V226.571Z" fill="#F0F0F0"/>
<path d="M214.087 229.949H212.075V231.961H214.087V229.949Z" fill="#F0F0F0"/>
<path d="M214.087 233.326H212.075V235.338H214.087V233.326Z" fill="#F0F0F0"/>
<path d="M214.087 236.704H212.075V238.716H214.087V236.704Z" fill="#F0F0F0"/>
<path d="M214.087 240.081H212.075V242.093H214.087V240.081Z" fill="#F0F0F0"/>
<path d="M214.087 243.458H212.075V245.47H214.087V243.458Z" fill="#F0F0F0"/>
<path d="M214.087 246.828H212.075V248.84H214.087V246.828Z" fill="#F0F0F0"/>
<path d="M214.087 250.205H212.075V252.217H214.087V250.205Z" fill="#F0F0F0"/>
<path d="M233.115 95.0532H229.738V283.382H233.115V95.0532Z" fill="#E0E0E0"/>
<path d="M296.713 95.0532H293.335V283.382H296.713V95.0532Z" fill="#E0E0E0"/>
<path d="M360.302 95.0532H356.925V283.382H360.302V95.0532Z" fill="#E0E0E0"/>
<path d="M119.939 265.024H140.769C141.714 265.024 142.62 265.399 143.289 266.068C143.957 266.736 144.332 267.642 144.332 268.587V308.85H116.383V268.62C116.379 268.15 116.468 267.683 116.645 267.248C116.821 266.812 117.082 266.416 117.413 266.082C117.743 265.748 118.137 265.482 118.57 265.301C119.004 265.119 119.469 265.025 119.939 265.024Z" fill="#F0F0F0"/>
<path d="M144.332 270.987H116.383V274.13H144.332V270.987Z" fill="#E6E6E6"/>
<path d="M132.277 303.574H139.242C139.749 303.574 140.236 303.775 140.596 304.135C140.955 304.494 141.156 304.981 141.156 305.489V308.882H130.354V305.489C130.354 305.237 130.403 304.987 130.5 304.754C130.597 304.521 130.739 304.31 130.917 304.132C131.096 303.954 131.308 303.813 131.541 303.717C131.775 303.621 132.024 303.573 132.277 303.574Z" fill="#E0E0E0"/>
<path d="M141.189 308.882H133.448C133.118 308.882 132.802 308.751 132.569 308.517C132.335 308.284 132.204 307.968 132.204 307.638C132.206 307.309 132.338 306.995 132.571 306.763C132.805 306.531 133.12 306.401 133.448 306.401H141.189C141.518 306.401 141.833 306.531 142.066 306.763C142.299 306.995 142.431 307.309 142.433 307.638C142.433 307.968 142.302 308.284 142.069 308.517C141.836 308.751 141.519 308.882 141.189 308.882Z" fill="#E6E6E6"/>
<path d="M265.293 86.2174C275.521 83.8034 281.855 73.5549 279.441 63.3268C277.027 53.0988 266.779 46.7643 256.551 49.1783C246.323 51.5923 239.988 61.8408 242.402 72.0689C244.816 82.2969 255.065 88.6315 265.293 86.2174Z" fill="#E0E0E0"/>
<path d="M263.51 83.6506C272.333 82.2185 278.324 73.9052 276.892 65.0823C275.46 56.2595 267.147 50.2682 258.324 51.7003C249.501 53.1325 243.51 61.4458 244.942 70.2686C246.374 79.0914 254.687 85.0828 263.51 83.6506Z" fill="#F0F0F0"/>
<path d="M261.686 56.584V67.896L269.176 63.654" fill="#F0F0F0"/>
<path d="M261.686 68.68C261.541 68.6799 261.399 68.6408 261.274 68.5668C261.153 68.4953 261.053 68.3936 260.984 68.2718C260.914 68.15 260.878 68.0122 260.878 67.872V56.56C260.878 56.3457 260.963 56.1401 261.115 55.9886C261.266 55.8371 261.472 55.752 261.686 55.752C261.9 55.752 262.106 55.8371 262.257 55.9886C262.409 56.1401 262.494 56.3457 262.494 56.56V66.5064L268.78 62.9512C268.967 62.8466 269.187 62.8201 269.393 62.8776C269.599 62.9352 269.774 63.0721 269.879 63.2583C269.984 63.4438 270.012 63.6635 269.956 63.8693C269.9 64.0752 269.765 64.2506 269.58 64.3572L262.082 68.5992C261.958 68.6564 261.822 68.6841 261.686 68.68Z" fill="#E0E0E0"/>
<path d="M78.8194 253.421C77.365 250.997 74.9733 253.106 74.9733 253.106C75.3127 248.516 71.0949 245.381 71.0949 245.381C71.0949 245.381 75.9995 245.381 76.6782 240.703C77.3569 236.025 74.9733 238.198 72.7271 238.166C70.4808 238.134 68.1296 244.695 71.1111 248.387C74.0926 252.08 73.2765 258.382 66.4328 264.442C64.7962 265.974 63.5685 267.89 62.8614 270.017C63.3785 264.45 63.6694 256.605 62.0534 251.369C59.2739 242.481 64.5744 240.057 66.0934 235.629C67.6124 231.201 62.0534 227.42 62.0534 227.42C62.0534 227.42 67.3135 224.996 64.744 222.289C62.1746 219.582 56.8741 219.921 56.8741 223.501C56.8741 227.08 60.4697 228.446 60.4697 228.446C60.4697 228.446 64.5744 232.72 64.5744 234.91C64.5744 237.099 60.4697 241.923 60.4697 241.923C60.4697 241.923 62.3524 237.827 58.5871 237.657C54.8218 237.487 53.626 242.44 55.1692 244.662C56.7125 246.884 59.2739 245.01 59.2739 245.01C59.4346 247.604 59.8266 250.178 60.4455 252.702C60.8333 253.987 60.6556 259.004 60.3324 264.224C59.6178 262.34 58.4755 260.647 56.9953 259.279C50.1516 253.219 49.3597 246.917 52.3251 243.224C55.2904 239.531 52.9392 232.971 50.7091 233.003C48.479 233.035 46.0631 230.854 46.7499 235.532C47.4367 240.21 52.3412 240.218 52.3412 240.218C52.3412 240.218 48.1154 243.353 48.4548 247.943C48.4548 247.943 46.0308 245.858 44.6087 248.258C42.015 252.532 48.0346 255.182 49.0446 253.106C49.0446 253.106 61.8029 262.139 58.7406 275.14L59.4516 276.199C59.3628 277.249 59.3062 277.879 59.3062 277.879L60.3 277.451L61.4393 279.123C61.3995 281.013 61.4967 282.904 61.7302 284.779L64.7764 280.271C61.6979 267.27 74.4724 258.237 74.4724 258.237C75.4016 260.354 81.4131 257.695 78.8194 253.421Z" fill="#E0E0E0"/>
<path opacity="0.2" d="M78.8194 253.421C77.365 250.997 74.9733 253.106 74.9733 253.106C75.3127 248.516 71.0949 245.381 71.0949 245.381C71.0949 245.381 75.9995 245.381 76.6782 240.703C77.3569 236.025 74.9733 238.198 72.7271 238.166C70.4808 238.134 68.1296 244.695 71.1111 248.387C74.0926 252.08 73.2765 258.382 66.4328 264.442C64.7962 265.974 63.5685 267.89 62.8614 270.017C63.3785 264.45 63.6694 256.605 62.0534 251.369C59.2739 242.481 64.5744 240.057 66.0934 235.629C67.6124 231.201 62.0534 227.42 62.0534 227.42C62.0534 227.42 67.3135 224.996 64.744 222.289C62.1746 219.582 56.8741 219.921 56.8741 223.501C56.8741 227.08 60.4697 228.446 60.4697 228.446C60.4697 228.446 64.5744 232.72 64.5744 234.91C64.5744 237.099 60.4697 241.923 60.4697 241.923C60.4697 241.923 62.3524 237.827 58.5871 237.657C54.8218 237.487 53.626 242.44 55.1692 244.662C56.7125 246.884 59.2739 245.01 59.2739 245.01C59.4346 247.604 59.8266 250.178 60.4455 252.702C60.8333 253.987 60.6556 259.004 60.3324 264.224C59.6178 262.34 58.4755 260.647 56.9953 259.279C50.1516 253.219 49.3597 246.917 52.3251 243.224C55.2904 239.531 52.9392 232.971 50.7091 233.003C48.479 233.035 46.0631 230.854 46.7499 235.532C47.4367 240.21 52.3412 240.218 52.3412 240.218C52.3412 240.218 48.1154 243.353 48.4548 247.943C48.4548 247.943 46.0308 245.858 44.6087 248.258C42.015 252.532 48.0346 255.182 49.0446 253.106C49.0446 253.106 61.8029 262.139 58.7406 275.14L59.4516 276.199C59.3628 277.249 59.3062 277.879 59.3062 277.879L60.3 277.451L61.4393 279.123C61.3995 281.013 61.4967 282.904 61.7302 284.779L64.7764 280.271C61.6979 267.27 74.4724 258.237 74.4724 258.237C75.4016 260.354 81.4131 257.695 78.8194 253.421Z" fill="#E0E0E0"/>
<path d="M76.3228 308.882H47.0975L43.9463 276.885H79.4821L76.3228 308.882Z" fill="#E6E6E6"/>
<path d="M81.0331 273.354H42.3784V280.416H81.0331V273.354Z" fill="#F0F0F0"/>
<path d="M202.5 345.468C289.023 345.468 359.163 341.373 359.163 336.322C359.163 331.27 289.023 327.175 202.5 327.175C115.977 327.175 45.8369 331.27 45.8369 336.322C45.8369 341.373 115.977 345.468 202.5 345.468Z" fill="#F5F5F5"/>
<path d="M293.901 318.619L270.622 316.332V283.608H261.395V316.316L238.052 318.619C236.932 318.729 235.894 319.251 235.138 320.085C234.383 320.918 233.964 322.002 233.963 323.127V326.626H298.022V323.127C298.022 321.997 297.599 320.907 296.837 320.073C296.074 319.238 295.027 318.719 293.901 318.619Z" fill="#263238"/>
<path opacity="0.2" d="M293.901 318.619L270.622 316.332V283.608H261.395V316.316L238.052 318.619C236.932 318.729 235.894 319.251 235.138 320.085C234.383 320.918 233.964 322.002 233.963 323.127V326.626H298.022V323.127C298.022 321.997 297.599 320.907 296.837 320.073C296.074 319.238 295.027 318.719 293.901 318.619Z" fill="white"/>
<path d="M236.396 337.001C239.729 337.001 242.431 334.298 242.431 330.965C242.431 327.631 239.729 324.929 236.396 324.929C233.062 324.929 230.36 327.631 230.36 330.965C230.36 334.298 233.062 337.001 236.396 337.001Z" fill="#263238"/>
<path d="M295.533 337.001C298.867 337.001 301.569 334.298 301.569 330.965C301.569 327.631 298.867 324.929 295.533 324.929C292.2 324.929 289.498 327.631 289.498 330.965C289.498 334.298 292.2 337.001 295.533 337.001Z" fill="#263238"/>
<path d="M259.812 261.501H272.214V287.3C272.214 288.185 271.863 289.034 271.237 289.66C270.611 290.286 269.762 290.637 268.877 290.637H263.149C262.264 290.637 261.415 290.286 260.789 289.66C260.163 289.034 259.812 288.185 259.812 287.3V261.501Z" fill="#263238"/>
<path opacity="0.3" d="M259.812 261.501H272.214V287.3C272.214 288.185 271.863 289.034 271.237 289.66C270.611 290.286 269.762 290.637 268.877 290.637H263.149C262.264 290.637 261.415 290.286 260.789 289.66C260.163 289.034 259.812 288.185 259.812 287.3V261.501Z" fill="white"/>
<path d="M288.067 210.363C288.067 210.363 289.829 253.995 277.676 261.501H291.55C291.55 261.501 302.296 246.642 299.258 210.363H288.067Z" fill="#263238"/>
<path opacity="0.3" d="M288.067 210.363C288.067 210.363 289.829 253.995 277.676 261.501H291.55C291.55 261.501 302.296 246.642 299.258 210.363H288.067Z" fill="white"/>
<path d="M296.269 264.846H234.117V259.441C234.117 258.369 234.543 257.342 235.3 256.584C236.058 255.826 237.086 255.401 238.157 255.401H292.229C293.3 255.401 294.328 255.826 295.085 256.584C295.843 257.342 296.269 258.369 296.269 259.441V264.846Z" fill="#263238"/>
<path d="M233.147 264.846H297.23C298.127 264.846 298.854 264.119 298.854 263.222V261.752C298.854 260.855 298.127 260.127 297.23 260.127H233.147C232.25 260.127 231.523 260.855 231.523 261.752V263.222C231.523 264.119 232.25 264.846 233.147 264.846Z" fill="#263238"/>
<path opacity="0.6" d="M233.147 264.846H297.23C298.127 264.846 298.854 264.119 298.854 263.222V261.752C298.854 260.855 298.127 260.127 297.23 260.127H233.147C232.25 260.127 231.523 260.855 231.523 261.752V263.222C231.523 264.119 232.25 264.846 233.147 264.846Z" fill="white"/>
<path d="M302.66 186.971H280.44C273.934 186.971 268.659 192.246 268.659 198.752V207.446C268.659 213.952 273.934 219.227 280.44 219.227H302.66C309.166 219.227 314.44 213.952 314.44 207.446V198.752C314.44 192.246 309.166 186.971 302.66 186.971Z" fill="#263238"/>
<path d="M213.044 151.322L208.608 139.631C208.608 139.631 210.515 137.869 209.206 136.084C207.897 134.298 199.72 129.28 198.234 130.161C196.747 131.042 193.426 134.371 195.22 136.221C197.014 138.071 204.916 141.15 204.916 141.15L208.843 156.502L213.044 151.322Z" fill="#E4897B"/>
<path d="M244.015 173.55C244.015 173.55 223.815 169.405 221.658 168.411C219.501 167.418 211.388 143.638 211.388 143.638L205.159 146.547C205.159 146.547 210.168 170.415 215.291 176.087C220.414 181.76 242.278 186.591 242.278 186.591L244.015 173.55Z" fill="#407BFF"/>
<path opacity="0.2" d="M242.23 186.567L241.858 186.478C240.759 186.228 237.309 185.42 233.212 184.216C226.562 182.285 218.175 179.368 215.25 176.096C210.136 170.44 205.118 146.547 205.118 146.547L211.34 143.638C211.34 143.638 219.46 167.426 221.658 168.411C223.856 169.397 244.015 173.55 244.015 173.55L242.23 186.567Z" fill="black"/>
<path d="M211.444 143.17L212.729 145.65L204.73 148.406L205.037 145.376L211.444 143.17Z" fill="#407BFF"/>
<path opacity="0.2" d="M242.383 186.236C241.268 186.074 237.769 185.533 233.584 184.62C235.968 180.499 242.949 178.382 242.949 178.382L242.383 186.236Z" fill="black"/>
<path d="M272.457 157.084C272.457 157.084 273.645 168.258 269.508 171.006C265.371 173.753 245.001 170.537 242.69 166.036C240.379 161.536 249.073 149.335 249.073 149.335L272.457 157.084Z" fill="#263238"/>
<path d="M190.049 304.123L195.365 305.408L198.056 298.071L200.496 291.397L194.444 288.82L192.117 296.916L190.049 304.123Z" fill="#E4897B"/>
<path opacity="0.2" d="M192.117 296.916L198.056 298.071L200.496 291.397L194.444 288.82L192.117 296.916Z" fill="black"/>
<path d="M192.65 293.046L200.019 295.785C200.019 295.785 219.678 246.634 223.718 246.497C227.758 246.36 268.893 265.235 279.203 254.747C289.513 244.259 274.606 218.968 274.606 218.968C274.606 218.968 249.808 215.429 247.942 221.029C247.482 222.679 247.132 224.358 246.891 226.055C246.609 227.768 246.415 229.206 246.415 229.206C245.647 229.012 220.753 222.588 210.944 229.206C200.965 235.936 192.65 293.046 192.65 293.046Z" fill="#407BFF"/>
<path opacity="0.6" d="M192.65 293.046L200.019 295.785C200.019 295.785 219.678 246.634 223.718 246.497C227.758 246.36 268.893 265.235 279.203 254.747C289.513 244.259 274.606 218.968 274.606 218.968C274.606 218.968 249.808 215.429 247.942 221.029C247.482 222.679 247.132 224.358 246.891 226.055C246.609 227.768 246.415 229.206 246.415 229.206C245.647 229.012 220.753 222.588 210.944 229.206C200.965 235.936 192.65 293.046 192.65 293.046Z" fill="white"/>
<path d="M235.038 325.091L240.331 323.742L239.312 316.138L238.367 309.173L231.822 309.763L233.519 317.884L235.038 325.091Z" fill="#E4897B"/>
<path opacity="0.2" d="M233.56 318.045L239.345 316.284L238.383 309.246L231.831 309.804L233.56 318.045Z" fill="black"/>
<path d="M203.066 293.054L192.327 289.41L191.867 293.805L200.011 296.682L203.066 293.054Z" fill="#407BFF"/>
<path d="M261.395 257.235C261.395 257.235 259.714 257.275 233.705 256.063C233.705 256.063 237.591 288.577 239.716 312.922L231.935 314.247C231.935 314.247 213.351 262.123 213.553 253.841C213.755 245.559 223.249 243.135 223.249 243.135C223.249 243.135 241.777 253.841 261.395 257.235Z" fill="#407BFF"/>
<path opacity="0.6" d="M261.395 257.235C261.395 257.235 259.714 257.275 233.705 256.063C233.705 256.063 237.591 288.577 239.716 312.922L231.935 314.247C231.935 314.247 213.351 262.123 213.553 253.841C213.755 245.559 223.249 243.135 223.249 243.135C223.249 243.135 241.777 253.841 261.395 257.235Z" fill="white"/>
<path opacity="0.1" d="M261.395 257.235C261.395 257.235 259.714 257.275 233.705 256.063C233.705 256.063 237.591 288.577 239.716 312.922L231.935 314.247C231.935 314.247 213.351 262.123 213.553 253.841C213.755 245.559 223.249 243.135 223.249 243.135C223.249 243.135 241.777 253.841 261.395 257.235Z" fill="black"/>
<path d="M240.848 310.563L230.158 311.783L232.227 315.969L240.88 314.862L240.848 310.563Z" fill="#407BFF"/>
<path opacity="0.1" d="M246.415 229.205L260.919 232.227C260.919 232.227 252.903 227.799 246.892 226.054C246.609 227.767 246.415 229.205 246.415 229.205Z" fill="black"/>
<path d="M274.008 215.114L274.606 218.968L247.942 221.029L247.239 216.464L274.008 215.114Z" fill="#263238"/>
<path opacity="0.2" d="M274.008 215.114L274.606 218.968L247.942 221.029L247.239 216.464L274.008 215.114Z" fill="black"/>
<path d="M265.598 221.572L266.917 221.436L266.226 214.725L264.908 214.86L265.598 221.572Z" fill="#407BFF"/>
<path d="M253.752 220.901L259.59 220.525L259.306 216.099L253.468 216.474L253.752 220.901Z" fill="white"/>
<path d="M249.238 222.277L250.557 222.141L249.867 215.43L248.548 215.565L249.238 222.277Z" fill="#407BFF"/>
<path opacity="0.6" d="M265.598 221.572L266.917 221.436L266.226 214.725L264.908 214.86L265.598 221.572Z" fill="white"/>
<path opacity="0.6" d="M249.238 222.277L250.557 222.141L249.867 215.43L248.548 215.565L249.238 222.277Z" fill="white"/>
<path d="M243.53 173.187C248.524 174.567 253.708 175.137 258.882 174.876C267.447 174.439 277.644 178.568 277.644 178.568L273.976 215.09L247.199 216.439C247.199 216.439 238.238 185.97 243.53 173.187Z" fill="#407BFF"/>
<path d="M247.837 152.559C247.837 152.559 249.34 134.831 264.159 141.247C282.743 149.327 267.972 170.933 258.882 166.505C249.792 162.077 247.837 152.559 247.837 152.559Z" fill="#263238"/>
<path opacity="0.2" d="M251.99 175.869L252.418 185.889L255.739 181.178C255.739 181.178 254.552 192.256 255.246 198.291C255.246 198.291 255.885 187.472 257.388 181.178L260.919 185.889L265.985 175.934C265.985 175.934 257.784 172.985 251.99 175.869Z" fill="black"/>
<path d="M256.58 177.76L264.248 175.595C259.521 172.363 261.904 165.091 261.904 165.091L254.309 167.757C254.658 168.813 254.929 169.893 255.117 170.989C255.925 175.724 253.776 176.104 253.776 176.104L256.58 177.76Z" fill="#E4897B"/>
<path opacity="0.2" d="M254.309 167.717C254.658 168.772 254.929 169.853 255.117 170.949C258.753 169.486 261.896 165.034 261.896 165.034L254.309 167.717Z" fill="black"/>
<path d="M259.27 144.996C252.539 143.509 249.574 146.612 247.554 153.447C245.025 161.972 245.582 168.549 254.398 168.565C266.372 168.581 270.437 147.468 259.27 144.996Z" fill="#E4897B"/>
<path d="M251.982 154.037C251.224 154.923 250.362 155.712 249.413 156.388C249.548 156.712 249.771 156.991 250.057 157.195C250.342 157.4 250.679 157.52 251.029 157.544L251.982 154.037Z" fill="#DE5753"/>
<path d="M256.224 154.393C256.087 154.942 256.272 155.467 256.644 155.556C257.016 155.645 257.412 155.273 257.549 154.748C257.686 154.223 257.501 153.682 257.129 153.585C256.757 153.488 256.361 153.843 256.224 154.393Z" fill="#263238"/>
<path d="M257.274 153.625L256.2 152.866C256.2 152.866 256.547 154.021 257.274 153.625Z" fill="#263238"/>
<path d="M249.421 152.599C249.283 153.149 249.469 153.674 249.841 153.763C250.213 153.852 250.649 153.48 250.746 152.955C250.843 152.43 250.697 151.888 250.326 151.791C249.954 151.694 249.558 152.05 249.421 152.599Z" fill="#263238"/>
<path d="M250.471 151.831L249.364 151.096C249.364 151.096 249.744 152.219 250.471 151.831Z" fill="#263238"/>
<path d="M260.014 151.719C259.959 151.72 259.906 151.706 259.859 151.679C259.812 151.652 259.773 151.612 259.747 151.565C259.481 151.149 259.125 150.799 258.705 150.539C258.286 150.279 257.814 150.116 257.323 150.062C257.246 150.052 257.175 150.013 257.126 149.953C257.076 149.893 257.051 149.817 257.056 149.739C257.064 149.661 257.103 149.589 257.163 149.54C257.224 149.49 257.301 149.466 257.379 149.472C257.975 149.53 258.549 149.725 259.057 150.042C259.564 150.358 259.991 150.789 260.304 151.298C260.322 151.333 260.333 151.37 260.337 151.409C260.34 151.448 260.335 151.487 260.323 151.524C260.311 151.561 260.292 151.595 260.266 151.624C260.241 151.653 260.21 151.677 260.175 151.694C260.124 151.715 260.069 151.723 260.014 151.719Z" fill="#263238"/>
<path d="M252.491 148.672C252.436 148.671 252.383 148.655 252.338 148.624C251.941 148.433 251.506 148.334 251.065 148.334C250.625 148.334 250.19 148.433 249.793 148.624C249.758 148.638 249.72 148.645 249.682 148.645C249.645 148.645 249.607 148.637 249.573 148.622C249.538 148.606 249.507 148.585 249.481 148.557C249.455 148.53 249.434 148.498 249.421 148.462C249.406 148.427 249.399 148.389 249.399 148.35C249.4 148.312 249.408 148.274 249.423 148.239C249.438 148.203 249.46 148.171 249.487 148.145C249.514 148.118 249.547 148.097 249.582 148.083C250.065 147.858 250.593 147.747 251.125 147.758C251.657 147.769 252.18 147.902 252.653 148.147C252.685 148.168 252.714 148.194 252.736 148.226C252.758 148.257 252.773 148.293 252.782 148.331C252.79 148.368 252.791 148.407 252.784 148.445C252.777 148.483 252.763 148.519 252.742 148.551C252.713 148.59 252.675 148.622 252.631 148.643C252.588 148.664 252.54 148.674 252.491 148.672Z" fill="#263238"/>
<path d="M264.11 157.956C264.11 157.956 262.187 151.734 263.609 147.573C263.609 147.573 251.489 139.178 247.837 152.558C247.837 152.558 249.186 140.261 260.813 142.555C272.441 144.85 268.635 161.745 261.549 165.462C261.549 165.462 265.29 161.842 264.11 157.956Z" fill="#263238"/>
<path d="M262.696 159.176C262.933 158.412 263.463 157.772 264.17 157.398C264.877 157.024 265.704 156.946 266.469 157.18C268.506 157.867 268.546 162.368 263.14 162.246C262.357 162.19 262.098 161.374 262.696 159.176Z" fill="#E4897B"/>
<path d="M249.809 160.098C249.988 160.923 250.107 161.76 250.164 162.602H250.6C252.612 162.772 253.598 162.182 254.083 161.487C254.315 161.142 254.459 160.745 254.503 160.332C254.537 160.099 254.537 159.862 254.503 159.629C253.206 160.076 251.828 160.238 250.463 160.106C250.075 160.13 249.809 160.098 249.809 160.098Z" fill="#263238"/>
<path d="M250.495 160.146L250.616 160.881C252.507 161.034 253.848 160.881 254.503 160.372C254.537 160.139 254.537 159.902 254.503 159.669C253.216 160.111 251.85 160.274 250.495 160.146Z" fill="white"/>
<path d="M250.601 162.643C252.613 162.812 253.598 162.222 254.083 161.528C253.32 161.478 252.554 161.563 251.821 161.778C251.333 161.93 250.906 162.233 250.601 162.643Z" fill="#DE5753"/>
<path d="M259.294 145.537C259.294 145.537 259.553 157.197 266.566 158.603C273.58 160.008 265.92 143.606 265.92 143.606C265.92 143.606 255.497 136.803 248.548 141.602C241.599 146.402 247.853 152.559 247.853 152.559C247.853 152.559 249.299 143.897 259.294 145.537Z" fill="#263238"/>
<path d="M261.969 156.211C261.922 156.21 261.876 156.193 261.84 156.162C256.862 152.252 259.319 144.77 259.343 144.697C259.361 144.646 259.398 144.605 259.447 144.581C259.495 144.557 259.55 144.552 259.602 144.568C259.652 144.586 259.693 144.623 259.716 144.672C259.738 144.72 259.741 144.776 259.723 144.826C259.723 144.899 257.339 152.098 262.09 155.847C262.11 155.865 262.125 155.887 262.136 155.912C262.146 155.936 262.151 155.962 262.151 155.989C262.151 156.015 262.146 156.041 262.136 156.066C262.125 156.09 262.11 156.112 262.09 156.13C262.077 156.151 262.059 156.17 262.038 156.184C262.017 156.197 261.994 156.207 261.969 156.211Z" fill="#263238"/>
<path d="M268.595 160.994C267.706 163.37 265.419 164.703 263.488 163.984C261.557 163.265 260.717 160.752 261.605 158.376C262.494 156.001 264.781 154.668 266.712 155.395C268.643 156.122 269.483 158.627 268.595 160.994Z" fill="#407BFF"/>
<path opacity="0.4" d="M268.595 160.994C267.706 163.37 265.419 164.703 263.488 163.984C261.557 163.265 260.717 160.752 261.605 158.376C262.494 156.001 264.781 154.668 266.712 155.395C268.643 156.122 269.483 158.627 268.595 160.994Z" fill="black"/>
<path d="M266.332 157.108C266.332 157.108 269.233 144.123 262.729 140.722C263.469 140.819 264.203 140.962 264.926 141.15C265.734 141.392 270.962 146.66 268.336 158.328L266.332 157.108Z" fill="#407BFF"/>
<path opacity="0.2" d="M266.332 157.108C266.332 157.108 269.233 144.123 262.729 140.722C263.469 140.819 264.203 140.962 264.926 141.15C265.734 141.392 270.962 146.66 268.336 158.328L266.332 157.108Z" fill="black"/>
<path d="M254.212 164.542L253.728 164.469L253.857 163.661C257.425 164.21 261.071 163.437 264.11 161.487L264.587 162.134C261.531 164.159 257.848 165.014 254.212 164.542Z" fill="#407BFF"/>
<g opacity="0.2">
<path d="M254.212 164.542L253.728 164.469L253.857 163.661C257.425 164.21 261.071 163.437 264.11 161.487L264.587 162.134C261.531 164.159 257.848 165.014 254.212 164.542Z" fill="black"/>
</g>
<path d="M268.32 160.671C267.738 162.238 266.219 163.095 264.95 162.642C263.682 162.19 263.116 160.509 263.706 158.942C264.296 157.374 265.807 156.518 267.076 156.97C268.344 157.423 268.91 159.103 268.32 160.671Z" fill="#407BFF"/>
<path d="M253.453 164.832L252.798 164.743C252.684 164.728 252.574 164.691 252.474 164.633C252.374 164.576 252.287 164.499 252.217 164.407C252.147 164.315 252.096 164.211 252.067 164.099C252.038 163.988 252.031 163.872 252.047 163.757C252.061 163.642 252.098 163.531 252.155 163.431C252.212 163.33 252.289 163.242 252.381 163.171C252.472 163.1 252.577 163.049 252.689 163.019C252.801 162.989 252.918 162.982 253.033 162.998L253.679 163.087C253.91 163.119 254.118 163.24 254.26 163.425C254.402 163.609 254.466 163.842 254.439 164.073C254.406 164.303 254.285 164.512 254.101 164.654C253.917 164.796 253.684 164.86 253.453 164.832Z" fill="#407BFF"/>
<path opacity="0.4" d="M253.453 164.832L252.798 164.743C252.684 164.728 252.574 164.691 252.474 164.633C252.374 164.576 252.287 164.499 252.217 164.407C252.147 164.315 252.096 164.211 252.067 164.099C252.038 163.988 252.031 163.872 252.047 163.757C252.061 163.642 252.098 163.531 252.155 163.431C252.212 163.33 252.289 163.242 252.381 163.171C252.472 163.1 252.577 163.049 252.689 163.019C252.801 162.989 252.918 162.982 253.033 162.998L253.679 163.087C253.91 163.119 254.118 163.24 254.26 163.425C254.402 163.609 254.466 163.842 254.439 164.073C254.406 164.303 254.285 164.512 254.101 164.654C253.917 164.796 253.684 164.86 253.453 164.832Z" fill="black"/>
<path d="M262.187 172.791L257.388 177.502L259.311 183.287L265.985 175.934L262.187 172.791Z" fill="#407BFF"/>
<path d="M255.246 173.777L256.022 177.405L253.542 182.536L251.99 175.87L255.246 173.777Z" fill="#407BFF"/>
<path d="M261.161 176.88L263.949 166.675C263.949 166.675 262.599 164.137 262.89 163.604C263.181 163.071 264.636 156.219 265.67 155.476C266.704 154.732 270.962 156.001 271.39 156.696C271.819 157.391 267.31 166.675 267.31 166.675L265.694 177.736L261.161 176.88Z" fill="#E4897B"/>
<path d="M277.644 178.568C285.32 186.422 269.944 204.214 261.129 203.455C252.313 202.695 261.355 170.44 261.355 170.44L267.011 171.369C267.011 171.369 265.031 185.331 265.653 186.422C266.276 187.513 275.099 175.959 277.644 178.568Z" fill="#407BFF"/>
<path opacity="0.2" d="M277.644 178.568C285.32 186.422 269.944 204.214 261.129 203.455C252.313 202.695 261.355 170.44 261.355 170.44L267.011 171.369C267.011 171.369 265.031 185.331 265.653 186.422C266.276 187.513 275.099 175.959 277.644 178.568Z" fill="black"/>
<path d="M260.919 169.43L260.086 172.096L267.948 172.791V170.464L260.919 169.43Z" fill="#407BFF"/>
<path opacity="0.6" d="M249.001 190.526H245.817C245.464 190.526 245.179 190.812 245.179 191.165V197.176C245.179 197.529 245.464 197.815 245.817 197.815H249.001C249.353 197.815 249.639 197.529 249.639 197.176V191.165C249.639 190.812 249.353 190.526 249.001 190.526Z" fill="white"/>
<path opacity="0.2" d="M249.065 191.011H245.445V195.964H249.065V191.011Z" fill="black"/>
<path d="M247.74 188.773H246.94V191.69H247.74V188.773Z" fill="#263238"/>
<path d="M181.258 314.45C182.064 314.075 182.932 313.853 183.819 313.795C183.819 313.795 186.89 311.993 189.928 304.972H193.345C193.925 304.976 194.489 305.159 194.961 305.496C195.432 305.833 195.788 306.307 195.98 306.854C196.037 307.004 196.069 307.163 196.077 307.323C196.036 308.149 195.947 308.972 195.81 309.787C195.31 312.519 194.643 315.217 193.814 317.867L193.232 317.722L194.283 312.615C194.638 310.886 192.812 312.559 191.972 314.304C191.132 316.049 189.831 317.819 186.049 316.954C181.646 315.872 179.876 315.241 181.258 314.45Z" fill="#407BFF"/>
<path d="M190.55 303.137C190.55 303.137 186.276 312.074 183.819 313.795C183.819 313.795 187.116 315.758 190.55 311.371C194.986 305.715 196.077 307.29 196.077 307.29C195.984 306.315 195.802 305.349 195.535 304.406C194.873 302.596 190.55 303.137 190.55 303.137Z" fill="#E4897B"/>
<path d="M228.3 335.74C228.998 335.19 229.788 334.768 230.635 334.496C230.635 334.496 233.188 332.015 234.473 324.477L237.794 323.669C238.357 323.539 238.947 323.585 239.483 323.802C240.02 324.019 240.476 324.396 240.791 324.881C240.882 325.015 240.953 325.162 241.001 325.317C241.163 326.117 241.274 326.927 241.333 327.741C241.488 330.503 241.474 333.271 241.292 336.031H240.694L240.508 330.827C240.436 329.058 239.07 331.118 238.658 333.017C238.246 334.916 237.414 336.928 233.535 336.984C229.019 337.033 227.144 336.839 228.3 335.74Z" fill="#407BFF"/>
<path d="M234.643 322.546C234.643 322.546 232.614 332.242 230.603 334.496C230.603 334.496 234.271 335.627 236.566 330.561C239.539 324.016 240.969 325.293 240.969 325.293C240.65 324.367 240.247 323.472 239.765 322.618C238.715 321.002 234.643 322.546 234.643 322.546Z" fill="#E4897B"/>
<path d="M203.853 117.425L183.728 106.584C183.186 106.292 182.51 106.495 182.218 107.037L175.796 118.96C175.504 119.502 175.706 120.178 176.248 120.47L196.373 131.311C196.915 131.603 197.591 131.4 197.883 130.858L204.305 118.935C204.598 118.393 204.395 117.717 203.853 117.425Z" fill="#407BFF"/>
<path opacity="0.7" d="M203.853 117.425L183.728 106.584C183.186 106.292 182.51 106.495 182.218 107.037L175.796 118.96C175.504 119.502 175.706 120.178 176.248 120.47L196.373 131.311C196.915 131.603 197.591 131.4 197.883 130.858L204.305 118.935C204.598 118.393 204.395 117.717 203.853 117.425Z" fill="white"/>
<path opacity="0.2" d="M181.694 108.021L187.956 119.778C188.197 120.226 188.565 120.592 189.013 120.831C189.462 121.07 189.972 121.17 190.477 121.119L203.575 119.826L190.243 121.79C189.66 121.876 189.065 121.771 188.547 121.492C188.029 121.212 187.615 120.773 187.366 120.238L181.694 108.021Z" fill="black"/>
<path d="M166.415 105.848C166.633 101.356 169.962 92.2978 174.01 89.5264C178.058 86.755 175.392 90.5929 175.392 90.5929C175.392 90.5929 179.23 86.86 181.25 86.9731C183.27 87.0862 181.25 89.3971 181.25 89.3971C181.25 89.3971 185.411 86.8357 187.326 86.9731C189.241 87.1105 187.326 89.3244 187.326 89.3244C187.326 89.3244 190.736 86.9004 192.117 88.0397C193.499 89.1789 174.43 101.776 172.305 106.898C170.18 112.021 166.197 110.381 166.415 105.848Z" fill="#407BFF"/>
<path opacity="0.4" d="M166.415 105.848C166.633 101.356 169.962 92.2978 174.01 89.5264C178.058 86.755 175.392 90.5929 175.392 90.5929C175.392 90.5929 179.23 86.86 181.25 86.9731C183.27 87.0862 181.25 89.3971 181.25 89.3971C181.25 89.3971 185.411 86.8357 187.326 86.9731C189.241 87.1105 187.326 89.3244 187.326 89.3244C187.326 89.3244 190.736 86.9004 192.117 88.0397C193.499 89.1789 174.43 101.776 172.305 106.898C170.18 112.021 166.197 110.381 166.415 105.848Z" fill="white"/>
<path d="M182.801 105.169L185.346 106.785C185.387 106.81 185.417 106.848 185.433 106.893C185.449 106.937 185.45 106.986 185.435 107.03C185.42 107.075 185.39 107.114 185.351 107.14C185.311 107.166 185.264 107.177 185.217 107.173L182.543 106.963L182.769 109.016C182.775 109.064 182.766 109.113 182.742 109.156C182.719 109.199 182.682 109.232 182.637 109.252C182.593 109.272 182.543 109.277 182.495 109.267C182.448 109.256 182.405 109.23 182.373 109.193L180.83 107.464L182.801 105.169Z" fill="#407BFF"/>
<path opacity="0.3" d="M182.801 105.169L185.346 106.785C185.387 106.81 185.417 106.848 185.433 106.893C185.449 106.937 185.45 106.986 185.435 107.03C185.42 107.075 185.39 107.114 185.351 107.14C185.311 107.166 185.264 107.177 185.217 107.173L182.543 106.963L182.769 109.016C182.775 109.064 182.766 109.113 182.742 109.156C182.719 109.199 182.682 109.232 182.637 109.252C182.593 109.272 182.543 109.277 182.495 109.267C182.448 109.256 182.405 109.23 182.373 109.193L180.83 107.464L182.801 105.169Z" fill="white"/>
<path d="M147.047 95.0531C147.047 95.0531 150.57 92.6291 155.895 94.1967C155.895 94.1967 157.422 101.234 161.616 103.578C163.918 104.862 169.55 104.749 174.01 103.311C179.303 101.598 181.888 101.598 182.85 103.578C183.811 105.557 182.745 107.618 178.697 108.579C174.649 109.541 171.425 116.57 164.096 116.659C156.768 116.748 152.873 109.387 154.723 102.923C152.971 99.6186 150.307 96.8869 147.047 95.0531Z" fill="#407BFF"/>
<path opacity="0.5" d="M147.047 95.0531C147.047 95.0531 150.57 92.6291 155.895 94.1967C155.895 94.1967 157.422 101.234 161.616 103.578C163.918 104.862 169.55 104.749 174.01 103.311C179.303 101.598 181.888 101.598 182.85 103.578C183.811 105.557 182.745 107.618 178.697 108.579C174.649 109.541 171.425 116.57 164.096 116.659C156.768 116.748 152.873 109.387 154.723 102.923C152.971 99.6186 150.307 96.8869 147.047 95.0531Z" fill="white"/>
<path d="M180.83 104.91C180.83 104.982 180.808 105.053 180.768 105.112C180.729 105.172 180.672 105.219 180.605 105.246C180.539 105.274 180.466 105.281 180.395 105.267C180.325 105.253 180.26 105.218 180.209 105.168C180.158 105.117 180.124 105.052 180.11 104.981C180.095 104.911 180.103 104.838 180.13 104.771C180.158 104.705 180.204 104.648 180.264 104.608C180.324 104.568 180.394 104.547 180.466 104.547C180.563 104.547 180.655 104.585 180.723 104.653C180.791 104.722 180.83 104.814 180.83 104.91Z" fill="#263238"/>
<path d="M162.391 110.825C158.052 112.005 148.405 111.633 144.526 108.644C140.648 105.654 145.108 107.028 145.108 107.028C145.108 107.028 140.381 104.531 139.856 102.575C139.331 100.62 142.183 101.816 142.183 101.816C142.183 101.816 138.466 98.6566 137.981 96.7982C137.497 94.9398 140.212 96.071 140.212 96.071C140.212 96.071 136.826 93.5824 137.513 91.9098C138.2 90.2373 156.048 104.49 161.567 104.935C167.086 105.379 166.787 109.629 162.391 110.825Z" fill="#407BFF"/>
<path opacity="0.4" d="M162.391 110.825C158.052 112.005 148.405 111.633 144.526 108.644C140.648 105.654 145.108 107.028 145.108 107.028C145.108 107.028 140.381 104.531 139.856 102.575C139.331 100.62 142.183 101.816 142.183 101.816C142.183 101.816 138.466 98.6566 137.981 96.7982C137.497 94.9398 140.212 96.071 140.212 96.071C140.212 96.071 136.826 93.5824 137.513 91.9098C138.2 90.2373 156.048 104.49 161.567 104.935C167.086 105.379 166.787 109.629 162.391 110.825Z" fill="white"/>
<path d="M133.95 91.1666C133.918 91.1744 133.884 91.1744 133.853 91.1666C133.101 90.8999 132.334 90.6495 131.558 90.4151C131.481 90.3909 131.417 90.3376 131.379 90.2665C131.341 90.1955 131.333 90.1125 131.356 90.0354C131.38 89.9587 131.433 89.8945 131.504 89.8568C131.575 89.819 131.658 89.8106 131.736 89.8334C132.544 90.0677 133.295 90.3263 134.055 90.6414C134.122 90.6645 134.179 90.7111 134.216 90.7728C134.252 90.8344 134.265 90.907 134.252 90.9774C134.239 91.0478 134.202 91.1113 134.146 91.1564C134.091 91.2015 134.021 91.2252 133.95 91.2231V91.1666Z" fill="#407BFF"/>
<path d="M85.1142 156.752C85.0341 156.752 84.9572 156.721 84.8998 156.665C84.8425 156.609 84.8092 156.533 84.8071 156.453C84.8071 156.373 84.8383 156.296 84.8942 156.239C84.95 156.181 85.026 156.148 85.1061 156.146C86.7135 156.123 88.3162 155.967 89.8975 155.677C89.9767 155.663 90.0583 155.681 90.1248 155.726C90.1913 155.771 90.2374 155.841 90.253 155.92C90.2612 155.959 90.2614 156 90.2535 156.039C90.2457 156.078 90.23 156.116 90.2073 156.149C90.1847 156.182 90.1556 156.211 90.1218 156.232C90.088 156.254 90.0502 156.269 90.0106 156.275C88.3947 156.571 86.7568 156.731 85.1142 156.752ZM80.2662 156.494C78.6357 156.32 77.0169 156.05 75.4182 155.686C75.339 155.668 75.27 155.62 75.2261 155.552C75.1822 155.484 75.167 155.401 75.1838 155.322C75.203 155.244 75.2518 155.177 75.3197 155.135C75.3876 155.093 75.4693 155.079 75.5474 155.096C77.1209 155.45 78.7122 155.72 80.3146 155.904C80.3865 155.915 80.4518 155.952 80.499 156.008C80.5461 156.063 80.572 156.134 80.572 156.207C80.572 156.28 80.5461 156.35 80.499 156.405C80.4518 156.461 80.3865 156.498 80.3146 156.51L80.2662 156.494ZM94.6243 154.878C94.5662 154.878 94.5093 154.861 94.4605 154.83C94.4117 154.798 94.3732 154.753 94.3496 154.7C94.3322 154.663 94.3224 154.624 94.3208 154.583C94.3191 154.543 94.3257 154.503 94.34 154.465C94.3544 154.427 94.3762 154.393 94.4042 154.364C94.4323 154.335 94.4659 154.311 94.5031 154.296C95.9706 153.663 97.3329 152.81 98.5431 151.767C98.605 151.72 98.6824 151.698 98.7598 151.705C98.8373 151.713 98.9089 151.75 98.9602 151.808C99.0115 151.867 99.0386 151.943 99.0362 152.02C99.0338 152.098 99.0019 152.172 98.9471 152.227C97.6883 153.307 96.2748 154.192 94.7536 154.853C94.709 154.878 94.6591 154.892 94.6082 154.894L94.6243 154.878ZM70.7964 154.328C70.7646 154.336 70.7313 154.336 70.6994 154.328C69.1642 153.819 67.621 153.221 66.1262 152.567C66.0599 152.529 66.0101 152.468 65.9865 152.395C65.9629 152.323 65.9671 152.244 65.9984 152.174C66.0297 152.105 66.0857 152.049 66.1556 152.019C66.2256 151.988 66.3043 151.985 66.3766 152.009C67.8472 152.656 69.3662 153.245 70.8934 153.754C70.9689 153.782 71.0308 153.838 71.0655 153.91C71.1003 153.983 71.1052 154.066 71.0792 154.142C71.0563 154.198 71.0171 154.246 70.9666 154.279C70.9161 154.312 70.8568 154.329 70.7964 154.328ZM61.9084 150.401C61.861 150.416 61.8104 150.416 61.763 150.401C60.3166 149.593 58.9107 148.721 57.6017 147.808C57.5694 147.785 57.5418 147.756 57.5207 147.722C57.4995 147.689 57.4851 147.652 57.4784 147.613C57.4716 147.573 57.4726 147.534 57.4813 147.495C57.49 147.456 57.5062 147.42 57.529 147.387C57.5518 147.355 57.5808 147.327 57.6143 147.306C57.6477 147.285 57.685 147.271 57.724 147.264C57.7631 147.257 57.803 147.258 57.8417 147.267C57.8803 147.276 57.9168 147.292 57.9492 147.315C59.242 148.212 60.6237 149.076 62.0619 149.876C62.0967 149.895 62.1273 149.921 62.1519 149.953C62.1765 149.984 62.1946 150.02 62.2051 150.058C62.2157 150.097 62.2184 150.137 62.2133 150.176C62.2081 150.216 62.1951 150.254 62.175 150.288C62.1409 150.34 62.0919 150.381 62.0343 150.406C61.9768 150.43 61.9133 150.437 61.8518 150.425L61.9084 150.401ZM101.856 148.551C101.809 148.565 101.758 148.565 101.71 148.551C101.676 148.532 101.645 148.505 101.62 148.474C101.596 148.443 101.578 148.407 101.567 148.369C101.557 148.33 101.554 148.29 101.559 148.251C101.564 148.211 101.577 148.173 101.597 148.139C101.848 147.702 102.082 147.25 102.292 146.781C102.742 145.792 103.094 144.761 103.343 143.703C103.364 143.625 103.414 143.557 103.483 143.515C103.552 143.473 103.635 143.459 103.714 143.477C103.792 143.498 103.859 143.548 103.9 143.618C103.94 143.687 103.952 143.77 103.932 143.848C103.669 144.941 103.304 146.007 102.842 147.032C102.624 147.517 102.381 147.993 102.123 148.446C102.088 148.498 102.039 148.538 101.981 148.561C101.923 148.584 101.86 148.589 101.799 148.575L101.856 148.551ZM53.9415 144.818C53.8704 144.817 53.8019 144.791 53.7476 144.745C52.5171 143.658 51.3642 142.487 50.2974 141.238C50.2417 141.181 50.2104 141.104 50.2104 141.024C50.2104 140.944 50.2417 140.868 50.2974 140.81C50.3534 140.755 50.4289 140.724 50.5075 140.724C50.5862 140.724 50.6616 140.755 50.7176 140.81C51.7651 142.032 52.8963 143.18 54.1031 144.244C54.1589 144.302 54.1901 144.378 54.1901 144.458C54.1901 144.538 54.1589 144.615 54.1031 144.672C54.0831 144.716 54.0528 144.755 54.0148 144.784C53.9768 144.814 53.9323 144.834 53.885 144.842L53.9415 144.818ZM104.183 139.21C104.143 139.21 104.103 139.202 104.067 139.187C104.03 139.171 103.997 139.149 103.969 139.12C103.941 139.091 103.919 139.057 103.904 139.02C103.89 138.983 103.883 138.943 103.884 138.903C103.872 137.296 103.724 135.694 103.44 134.112C103.425 134.033 103.443 133.951 103.488 133.885C103.533 133.818 103.603 133.772 103.682 133.756C103.762 133.744 103.844 133.764 103.91 133.81C103.976 133.857 104.022 133.927 104.038 134.007C104.328 135.623 104.48 137.261 104.49 138.903C104.49 138.985 104.458 139.063 104.4 139.12C104.342 139.178 104.264 139.21 104.183 139.21ZM102.567 129.628C102.502 129.627 102.438 129.605 102.386 129.566C102.333 129.527 102.295 129.472 102.276 129.409C101.864 127.995 101.355 126.492 100.733 124.812C100.717 124.774 100.71 124.734 100.71 124.693C100.711 124.653 100.72 124.613 100.737 124.576C100.753 124.539 100.777 124.505 100.807 124.478C100.837 124.45 100.872 124.429 100.911 124.416C100.986 124.389 101.068 124.393 101.14 124.426C101.213 124.46 101.269 124.52 101.298 124.594C101.929 126.29 102.438 127.826 102.858 129.232C102.881 129.309 102.872 129.392 102.834 129.463C102.797 129.534 102.733 129.587 102.656 129.611L102.567 129.628ZM99.2218 120.457C99.1658 120.457 99.1108 120.441 99.0635 120.411C99.0162 120.381 98.9786 120.338 98.9552 120.287C98.4381 118.994 97.7351 117.508 96.9998 115.932V115.851C96.9788 115.781 96.9837 115.705 97.0137 115.638C97.0437 115.571 97.0968 115.517 97.1633 115.485C97.2298 115.454 97.3053 115.448 97.3762 115.467C97.447 115.487 97.5084 115.531 97.5493 115.593V115.673C98.2926 117.289 98.9875 118.752 99.5046 120.02C99.5373 120.097 99.5386 120.182 99.5084 120.26C99.4781 120.337 99.4187 120.399 99.343 120.432L99.2218 120.457ZM95.1818 111.569C95.1224 111.571 95.0637 111.555 95.0133 111.523C94.9629 111.491 94.9231 111.445 94.899 111.391C94.1718 109.702 93.5901 108.207 93.1295 106.826C93.1035 106.75 93.1084 106.666 93.1432 106.594C93.1779 106.521 93.2398 106.465 93.3154 106.438C93.3925 106.412 93.4767 106.418 93.5494 106.455C93.6221 106.491 93.6774 106.555 93.7032 106.632C94.1557 107.997 94.7293 109.476 95.4565 111.149C95.4724 111.185 95.4808 111.224 95.4812 111.264C95.4817 111.304 95.4741 111.344 95.4591 111.381C95.444 111.417 95.4218 111.451 95.3936 111.479C95.3654 111.507 95.3319 111.529 95.295 111.544C95.268 111.573 95.2348 111.595 95.198 111.609L95.1818 111.569ZM92.2245 102.309C92.1522 102.308 92.0826 102.282 92.0279 102.234C91.9732 102.187 91.937 102.122 91.9256 102.05C91.7869 101.185 91.7167 100.309 91.7155 99.4326C91.7088 98.6492 91.7792 97.867 91.9256 97.0974C91.9489 97.0258 91.9977 96.9651 92.0628 96.9271C92.1279 96.8892 92.2047 96.8764 92.2786 96.8914C92.3525 96.9064 92.4183 96.948 92.4634 97.0083C92.5086 97.0687 92.53 97.1435 92.5235 97.2186C92.3836 97.9482 92.316 98.6897 92.3215 99.4326C92.3243 100.279 92.3918 101.125 92.5235 101.962C92.5332 102.04 92.5128 102.12 92.4664 102.184C92.4199 102.249 92.3509 102.293 92.273 102.309H92.2245ZM94.3334 93.1302C94.2632 93.1321 94.1945 93.1092 94.1395 93.0655C94.0837 93.0082 94.0525 92.9314 94.0525 92.8514C94.0525 92.7714 94.0837 92.6946 94.1395 92.6373C95.2243 91.37 96.544 90.3246 98.026 89.5588C98.0969 89.5211 98.1797 89.5127 98.2568 89.5353C98.3338 89.558 98.3989 89.6099 98.4381 89.68C98.4731 89.7522 98.4792 89.8351 98.4551 89.9117C98.4311 89.9882 98.3788 90.0528 98.3088 90.0921C96.8976 90.8219 95.6409 91.8179 94.6082 93.0251C94.5814 93.0698 94.5435 93.1067 94.4982 93.1322C94.4528 93.1577 94.4016 93.1709 94.3496 93.1706L94.3334 93.1302ZM126.912 89.171H126.847C125.296 88.8478 123.688 88.573 122.064 88.363C122.025 88.358 121.987 88.3452 121.952 88.3254C121.918 88.3056 121.888 88.2791 121.864 88.2475C121.839 88.2159 121.822 88.1799 121.812 88.1414C121.802 88.103 121.8 88.0629 121.805 88.0236C121.81 87.9842 121.823 87.9462 121.843 87.9117C121.863 87.8773 121.889 87.8472 121.921 87.8231C121.952 87.799 121.989 87.7815 122.027 87.7715C122.065 87.7616 122.105 87.7594 122.145 87.765C123.761 87.9751 125.377 88.2498 126.993 88.573C127.065 88.5897 127.129 88.6321 127.173 88.6924C127.216 88.7527 127.237 88.8267 127.23 88.9008C127.223 88.9748 127.189 89.0438 127.135 89.095C127.081 89.1462 127.011 89.176 126.936 89.179L126.912 89.171ZM102.672 88.4842C102.633 88.4884 102.593 88.4849 102.555 88.4738C102.517 88.4627 102.482 88.4442 102.451 88.4194C102.42 88.3947 102.395 88.3641 102.376 88.3295C102.357 88.2948 102.345 88.2568 102.341 88.2175C102.336 88.1783 102.34 88.1385 102.351 88.1006C102.362 88.0628 102.381 88.0274 102.405 87.9967C102.43 87.9659 102.461 87.9403 102.495 87.9214C102.53 87.9024 102.568 87.8905 102.607 87.8862C104.203 87.5282 105.824 87.2932 107.455 87.1833C107.535 87.1788 107.614 87.2059 107.675 87.2588C107.735 87.3116 107.772 87.386 107.779 87.4661C107.782 87.506 107.777 87.5462 107.765 87.5842C107.752 87.6223 107.732 87.6574 107.706 87.6876C107.679 87.7177 107.647 87.7423 107.611 87.7597C107.575 87.7772 107.536 87.7872 107.496 87.7893C105.891 87.893 104.297 88.1227 102.729 88.4761L102.672 88.4842ZM117.216 87.9186C115.81 87.8216 114.138 87.7166 112.368 87.6842C112.288 87.6821 112.212 87.6489 112.156 87.5915C112.1 87.5341 112.069 87.4572 112.069 87.3772C112.069 87.3372 112.077 87.2977 112.093 87.2609C112.108 87.2241 112.131 87.1908 112.159 87.1629C112.188 87.135 112.222 87.1132 112.259 87.0986C112.296 87.0841 112.336 87.0772 112.376 87.0782C114.162 87.1186 115.85 87.2156 117.224 87.3126C117.264 87.3146 117.303 87.3246 117.339 87.3421C117.375 87.3596 117.408 87.3841 117.434 87.4143C117.46 87.4444 117.48 87.4796 117.493 87.5176C117.505 87.5557 117.51 87.5958 117.507 87.6358C117.513 87.7087 117.492 87.7814 117.449 87.8406C117.406 87.8999 117.344 87.9419 117.273 87.959L117.216 87.9186Z" fill="#407BFF"/>
<path d="M47.6551 137.36C47.6009 137.361 47.5475 137.347 47.5005 137.32C47.4535 137.293 47.4148 137.254 47.3885 137.206C46.9798 136.497 46.6155 135.763 46.2977 135.008C46.2818 134.972 46.2734 134.933 46.273 134.893C46.2725 134.853 46.2801 134.813 46.2951 134.776C46.3102 134.74 46.3324 134.706 46.3606 134.678C46.3888 134.65 46.4224 134.628 46.4593 134.613C46.5333 134.583 46.6161 134.583 46.69 134.613C46.7639 134.643 46.8231 134.701 46.8552 134.774C47.1672 135.505 47.5206 136.217 47.9137 136.907C47.9438 136.952 47.9609 137.005 47.9628 137.059C47.9648 137.113 47.9516 137.167 47.9247 137.214C47.8978 137.261 47.8583 137.299 47.8107 137.325C47.7631 137.351 47.7092 137.363 47.6551 137.36Z" fill="#407BFF"/>
<path d="M145.786 201.224H115.115V207.51H145.786V201.224Z" fill="white"/>
<path opacity="0.1" d="M145.786 201.224H115.115V207.51H145.786V201.224Z" fill="black"/>
<path opacity="0.1" d="M128.035 201.224H115.115V207.51H128.035V201.224Z" fill="black"/>
<path opacity="0.1" d="M115.115 202.129H142.417L115.115 202.905V202.129Z" fill="black"/>
<path opacity="0.1" d="M145.786 203.22L122.12 203.81H145.786V203.22Z" fill="black"/>
<path opacity="0.1" d="M116.367 204.982L128.035 204.505L145.189 204.982L128.035 205.248L116.367 204.982Z" fill="black"/>
<path opacity="0.1" d="M115.115 206.314H135.331L115.115 206.791V206.314Z" fill="black"/>
<path opacity="0.1" d="M145.738 206.792L132.236 207.042H145.786L145.738 206.792Z" fill="black"/>
<path d="M141.52 194.938H110.849V201.224H141.52V194.938Z" fill="white"/>
<path opacity="0.1" d="M141.52 194.938H110.849V201.224H141.52V194.938Z" fill="black"/>
<path opacity="0.1" d="M123.769 194.938H110.849V201.224H123.769V194.938Z" fill="black"/>
<path opacity="0.1" d="M110.849 195.843H138.151L110.849 196.61V195.843Z" fill="black"/>
<path opacity="0.1" d="M141.52 196.934L117.854 197.523H141.52V196.934Z" fill="black"/>
<path opacity="0.1" d="M112.093 198.695L123.761 198.21L140.915 198.695L123.761 198.962L112.093 198.695Z" fill="black"/>
<path opacity="0.1" d="M110.849 200.021H131.065L110.849 200.505V200.021Z" fill="black"/>
<path opacity="0.1" d="M141.472 200.505L127.97 200.755H141.52L141.472 200.505Z" fill="black"/>
<path d="M145.019 188.644H114.347V194.93H145.019V188.644Z" fill="white"/>
<path opacity="0.1" d="M145.019 188.644H114.347V194.93H145.019V188.644Z" fill="black"/>
<path opacity="0.1" d="M127.267 188.644H114.347V194.93H127.267V188.644Z" fill="black"/>
<path opacity="0.1" d="M114.347 189.548H141.649L114.347 190.324V189.548Z" fill="black"/>
<path opacity="0.1" d="M145.019 190.639L121.353 191.229H145.019V190.639Z" fill="black"/>
<path opacity="0.1" d="M115.6 192.401L127.267 191.924L144.421 192.401L127.267 192.668L115.6 192.401Z" fill="black"/>
<path opacity="0.1" d="M114.347 193.734H134.563L114.347 194.211V193.734Z" fill="black"/>
<path opacity="0.1" d="M144.979 194.211L131.477 194.461H145.019L144.979 194.211Z" fill="black"/>
<path d="M165.454 207.381L166.245 204.367H199.018L214.103 205.878L214.677 207.381H165.454Z" fill="#263238"/>
<path opacity="0.4" d="M199.018 204.367V207.381H165.454L166.245 204.367H199.018Z" fill="black"/>
<path d="M192.432 189.945C192.476 190.31 192.441 190.68 192.33 191.031C192.219 191.382 192.034 191.705 191.787 191.978C191.541 192.252 191.239 192.469 190.901 192.616C190.564 192.762 190.199 192.835 189.831 192.829H139.638C138.853 192.812 138.101 192.51 137.523 191.979C136.944 191.448 136.579 190.725 136.495 189.945L133.513 157.81C133.481 157.497 133.503 157.179 133.578 156.873C133.717 156.309 134.044 155.809 134.505 155.455C134.966 155.101 135.534 154.914 136.115 154.926H186.34C187.125 154.943 187.877 155.245 188.455 155.776C189.034 156.307 189.399 157.03 189.483 157.81L192.432 189.945Z" fill="#263238"/>
<path opacity="0.4" d="M189.653 192.829H139.638C138.853 192.812 138.101 192.51 137.523 191.979C136.944 191.448 136.579 190.725 136.495 189.944L133.513 157.81C133.481 157.497 133.503 157.179 133.578 156.873H183.593C184.378 156.89 185.13 157.192 185.708 157.723C186.286 158.254 186.652 158.977 186.736 159.758L189.717 191.892C189.75 192.206 189.728 192.523 189.653 192.829Z" fill="black"/>
<path d="M155.167 173.122H165.55L162.787 202.848L179.205 205.313V207.381H144.623V205.313L151.709 202.848L155.167 173.122Z" fill="#263238"/>
<path opacity="0.1" d="M165.551 173.122L157.858 206.913L151.709 206.727L155.168 173.122H165.551Z" fill="white"/>
<path d="M165.502 336.993H160.557L151.661 213.167H158.23L165.502 336.993Z" fill="#263238"/>
<path opacity="0.4" d="M165.51 336.993H160.557L152.097 219.324L151.661 213.369H158.23L158.585 219.324L165.51 336.993Z" fill="white"/>
<path opacity="0.2" d="M158.585 219.025H152.097L151.661 213.369H158.23L158.585 219.025Z" fill="black"/>
<path d="M201.83 336.993H196.885L196.077 213.167H202.638L201.83 336.993Z" fill="#263238"/>
<path opacity="0.5" d="M202.646 213.369L202.516 233.35L201.838 336.993H196.885L196.206 233.35L196.077 213.369H202.646Z" fill="white"/>
<path opacity="0.2" d="M202.646 213.369L202.516 233.569H196.206L196.077 213.369H202.646Z" fill="black"/>
<path d="M254.382 336.993H249.437L240.541 213.167H247.11L254.382 336.993Z" fill="#263238"/>
<path opacity="0.5" d="M254.39 336.993H249.437L240.977 219.324L240.541 213.369H247.11L247.466 219.324L254.39 336.993Z" fill="white"/>
<path opacity="0.2" d="M247.466 219.025H240.977L240.541 213.369H247.11L247.466 219.025Z" fill="black"/>
<path d="M108.877 336.993H103.932L111.204 213.167H117.773L108.877 336.993Z" fill="#263238"/>
<path opacity="0.5" d="M117.773 213.369L117.337 219.324L108.877 336.993H103.932L110.849 219.324L111.204 213.369H117.773Z" fill="white"/>
<path opacity="0.2" d="M111.204 213.369H117.773L117.337 219.025H110.849L111.204 213.369Z" fill="black"/>
<path d="M106.001 210.08H252.314V214.532C252.314 214.761 252.268 214.988 252.181 215.2C252.093 215.412 251.964 215.604 251.802 215.766C251.64 215.928 251.448 216.057 251.236 216.145C251.024 216.232 250.798 216.277 250.568 216.277H107.746C107.283 216.277 106.839 216.094 106.512 215.766C106.185 215.439 106.001 214.995 106.001 214.532V210.08Z" fill="#407BFF"/>
<path opacity="0.6" d="M106.001 210.08H252.314V214.532C252.314 214.761 252.268 214.988 252.181 215.2C252.093 215.412 251.964 215.604 251.802 215.766C251.64 215.928 251.448 216.057 251.236 216.145C251.024 216.232 250.798 216.277 250.568 216.277H107.746C107.283 216.277 106.839 216.094 106.512 215.766C106.185 215.439 106.001 214.995 106.001 214.532V210.08Z" fill="white"/>
<path opacity="0.2" d="M252.314 210.072H106.001V213.174H252.314V210.072Z" fill="black"/>
<path d="M255.384 210.888H102.93C102.467 210.888 102.024 210.704 101.696 210.377C101.369 210.049 101.185 209.605 101.185 209.143C101.185 208.679 101.369 208.234 101.696 207.906C102.023 207.577 102.467 207.391 102.93 207.389H255.384C255.847 207.391 256.291 207.577 256.618 207.906C256.945 208.234 257.129 208.679 257.129 209.143C257.129 209.605 256.945 210.049 256.618 210.377C256.291 210.704 255.847 210.888 255.384 210.888Z" fill="#407BFF"/>
<path opacity="0.6" d="M255.384 210.888H102.93C102.467 210.888 102.024 210.704 101.696 210.377C101.369 210.049 101.185 209.605 101.185 209.143C101.185 208.679 101.369 208.234 101.696 207.906C102.023 207.577 102.467 207.391 102.93 207.389H255.384C255.847 207.391 256.291 207.577 256.618 207.906C256.945 208.234 257.129 208.679 257.129 209.143C257.129 209.605 256.945 210.049 256.618 210.377C256.291 210.704 255.847 210.888 255.384 210.888Z" fill="white"/>
<path d="M219.314 202L221.189 199.188C221.374 198.912 221.624 198.685 221.917 198.529C222.21 198.372 222.537 198.291 222.87 198.291H225.245C225.442 198.292 225.638 198.322 225.827 198.38L234.303 200.949C234.785 201.093 235.194 201.413 235.45 201.846L236.67 203.89L219.314 202Z" fill="#407BFF"/>
<path opacity="0.2" d="M236.67 203.89L224.316 202.549L219.298 202L221.173 199.188C221.358 198.912 221.608 198.685 221.901 198.529C222.194 198.372 222.521 198.291 222.854 198.291H225.229C225.429 198.292 225.628 198.322 225.819 198.38L226.005 198.436L234.287 200.949C234.771 201.092 235.184 201.412 235.442 201.846L236.67 203.89Z" fill="black"/>
<path opacity="0.2" d="M236.671 203.891L224.316 202.549L226.005 198.437L234.287 200.949C234.772 201.092 235.184 201.412 235.443 201.846L236.671 203.891Z" fill="black"/>
<path d="M242.537 207.114V207.381H216.341L217.311 203.592C217.491 202.895 217.897 202.279 218.467 201.84C219.036 201.401 219.735 201.164 220.454 201.168H232.073C232.459 201.166 232.843 201.234 233.204 201.37L234.659 201.911L240.428 204.06C241.051 204.291 241.587 204.708 241.964 205.254C242.342 205.801 242.542 206.45 242.537 207.114Z" fill="#407BFF"/>
<path opacity="0.2" d="M242.537 207.114V207.381H231.782L232.356 203.284C232.393 203.03 232.486 202.788 232.629 202.575C232.772 202.361 232.96 202.183 233.181 202.052C233.402 201.921 233.649 201.841 233.905 201.818C234.161 201.795 234.418 201.829 234.659 201.919L240.428 204.068C241.049 204.298 241.585 204.714 241.962 205.259C242.339 205.804 242.54 206.452 242.537 207.114Z" fill="black"/>
<path d="M233.455 204.601L236.881 194.332C236.914 194.227 236.97 194.131 237.044 194.05C237.119 193.97 237.21 193.906 237.312 193.865C237.414 193.823 237.523 193.804 237.633 193.809C237.743 193.815 237.85 193.844 237.947 193.895C238.096 193.981 238.214 194.111 238.284 194.268C238.353 194.425 238.371 194.6 238.335 194.768L235.45 205.725C235.45 205.725 233.535 206.5 233.455 204.601Z" fill="#263238"/>
<path opacity="0.2" d="M219.314 206.533H217.795L218.086 205.038H219.605L219.314 206.533Z" fill="black"/>
<path opacity="0.2" d="M221.577 206.476H220.058L220.349 204.981H221.868L221.577 206.476Z" fill="black"/>
</g>
<path d="M309.274 140.535C308.987 143.296 307.938 145.922 306.245 148.121C304.551 150.32 302.28 152.005 299.684 152.988C297.088 153.971 294.27 154.213 291.545 153.686C288.82 153.16 286.295 151.887 284.252 150.008L276.756 151.111L280.504 144.634C279.645 142.527 279.278 140.253 279.429 137.982C279.581 135.712 280.248 133.506 281.38 131.532C282.511 129.559 284.078 127.868 285.96 126.59C287.843 125.312 289.991 124.48 292.244 124.156C294.496 123.833 296.792 124.026 298.958 124.723C301.124 125.419 303.103 126.6 304.745 128.175C306.386 129.751 307.647 131.68 308.432 133.815C309.217 135.951 309.505 138.237 309.274 140.501V140.535Z" fill="white"/>
<path d="M309.274 140.536C308.982 143.292 307.936 145.914 306.25 148.114C305.425 149.225 304.436 150.203 303.315 151.014C302.211 151.854 300.993 152.532 299.698 153.026C298.405 153.532 297.049 153.857 295.667 153.991C294.98 154.049 294.29 154.062 293.601 154.032C292.907 154.01 292.216 153.936 291.534 153.812C288.773 153.305 286.208 152.038 284.128 150.153L284.3 150.208L276.797 151.345L276.253 151.428L276.529 150.952L280.256 144.456V144.717C279.374 142.571 278.997 140.251 279.154 137.937C279.31 135.622 279.996 133.374 281.158 131.366C282.326 129.369 283.93 127.661 285.85 126.371C288.24 124.796 291.027 123.93 293.889 123.873C296.751 123.816 299.571 124.571 302.022 126.05C304.472 127.529 306.454 129.672 307.738 132.231C309.021 134.789 309.554 137.659 309.274 140.508V140.536ZM309.274 140.536C309.513 138.28 309.232 136 308.451 133.871C307.67 131.741 306.411 129.819 304.77 128.253C303.129 126.687 301.151 125.519 298.988 124.838C296.824 124.156 294.533 123.981 292.292 124.325C290.066 124.657 287.945 125.494 286.091 126.77C284.26 128.057 282.729 129.726 281.606 131.662C280.504 133.603 279.854 135.767 279.705 137.993C279.569 140.222 279.929 142.452 280.759 144.525L280.814 144.655L280.745 144.779L276.969 151.242L276.708 150.849L284.203 149.795H284.307L284.382 149.864C286.383 151.738 288.867 153.017 291.554 153.557C292.235 153.696 292.927 153.779 293.621 153.805C294.309 153.854 295 153.854 295.688 153.805C297.057 153.698 298.404 153.401 299.691 152.923C300.984 152.456 302.201 151.798 303.301 150.973C303.857 150.569 304.386 150.129 304.885 149.657C305.376 149.169 305.836 148.651 306.263 148.107C307.944 145.908 308.986 143.288 309.274 140.536Z" fill="#263238"/>
<path d="M292.622 147.521L286.229 141.045L288.378 138.923L292.112 142.705L299.877 130.532L302.426 132.158L292.622 147.521Z" fill="#0099D8"/>
<defs>
<clipPath id="clip0_1806_7719">
<rect width="404" height="404" fill="white" transform="translate(0.5)"/>
</clipPath>
</defs>
</svg>
